<?xml version="1.0" encoding="UTF-8" standalone="no"?>
<!-- Created with Inkscape (http://www.inkscape.org/) -->

<svg
   version="1.1"
   id="svg2"
   width="865.82666"
   height="193.65334"
   viewBox="0 0 865.82666 193.65334"
   sodipodi:docname="bas-logo-transparent.svg"
   inkscape:version="1.2.2 (b0a8486541, 2022-12-01)"
   xmlns:inkscape="http://www.inkscape.org/namespaces/inkscape"
   xmlns:sodipodi="http://sodipodi.sourceforge.net/DTD/sodipodi-0.dtd"
   xmlns="http://www.w3.org/2000/svg"
   xmlns:svg="http://www.w3.org/2000/svg">
  <defs
     id="defs6" />
  <sodipodi:namedview
     id="namedview4"
     pagecolor="#000000"
     bordercolor="#000000"
     borderopacity="0.25"
     inkscape:showpageshadow="2"
     inkscape:pageopacity="0.0"
     inkscape:pagecheckerboard="0"
     inkscape:deskcolor="#d1d1d1"
     showgrid="false"
     inkscape:zoom="1.8236907"
     inkscape:cx="432.91333"
     inkscape:cy="97.055933"
     inkscape:window-width="3440"
     inkscape:window-height="1368"
     inkscape:window-x="0"
     inkscape:window-y="35"
     inkscape:window-maximized="1"
     inkscape:current-layer="g10">
    <inkscape:page
       x="0"
       y="0"
       id="page8"
       width="865.82666"
       height="193.65334" />
  </sodipodi:namedview>
  <g
     id="g10"
     inkscape:groupmode="layer"
     inkscape:label="Page 1"
     transform="matrix(1.3333333,0,0,-1.3333333,0,193.65333)">
    <g
       id="g12"
       transform="scale(0.1)">
      <path
         d="m 1829.35,1090.64 h 52.41 c 26.43,0 45.81,-11.89 45.81,-33.91 0,-25.99 -14.54,-37 -55.94,-37 h -42.28 z m -74.87,174.41 V 964.672 h 146.22 c 87.65,0 106.15,53.738 106.15,88.088 0,35.24 -21.14,66.06 -63.87,77.08 25.11,12.33 40.96,34.79 40.96,59.89 0,33.48 -28.62,75.32 -99.53,75.32 z m 74.87,-55.05 h 39.2 c 27.31,0 38.32,-16.3 38.32,-31.71 0,-15.86 -11.01,-32.6 -38.32,-32.6 h -39.2 V 1210"
         style="fill:#000000;fill-opacity:1;fill-rule:nonzero;stroke:none"
         id="path14" />
      <path
         d="m 2105.06,1109.58 h 0.88 c 18.95,42.28 40.08,62.1 64.75,62.1 12.77,0 23.78,-4.84 42.28,-18.5 l -17.62,-56.38 c -16.73,10.58 -27.74,14.98 -37.88,14.98 -23.34,0 -38.31,-22.02 -52.41,-59.46 v -87.648 h -63.86 v 203.038 h 63.86 v -58.13"
         style="fill:#000000;fill-opacity:1;fill-rule:nonzero;stroke:none"
         id="path16" />
      <path
         d="m 2294.01,1233.78 c 0,-19.38 -15.86,-35.24 -35.24,-35.24 -19.37,0 -35.23,15.86 -35.23,35.24 0,19.38 15.86,35.24 35.23,35.24 19.38,0 35.24,-15.86 35.24,-35.24 z m -3.08,-269.108 h -63.86 v 203.038 h 63.86 V 964.672"
         style="fill:#000000;fill-opacity:1;fill-rule:nonzero;stroke:none"
         id="path18" />
      <path
         d="m 2479.87,1124.11 h -73.99 v -83.68 c 0,-19.82 11.45,-32.59 31.27,-32.59 13.21,0 25.55,3.08 42.72,11.89 v -46.25 c -22.46,-9.25 -39.2,-12.769 -59.01,-12.769 -42.29,0 -78.84,19.379 -78.84,76.189 v 87.21 h -29.07 v 12.34 l 85,95.13 h 7.93 v -63.87 h 73.99 v -43.6"
         style="fill:#000000;fill-opacity:1;fill-rule:nonzero;stroke:none"
         id="path20" />
      <path
         d="m 2570.16,1233.78 c 0,-19.38 -15.86,-35.24 -35.24,-35.24 -19.38,0 -35.23,15.86 -35.23,35.24 0,19.38 15.85,35.24 35.23,35.24 19.38,0 35.24,-15.86 35.24,-35.24 z m -3.09,-269.108 h -63.86 v 203.038 h 63.86 V 964.672"
         style="fill:#000000;fill-opacity:1;fill-rule:nonzero;stroke:none"
         id="path22" />
      <path
         d="m 2749.85,1111.34 c -27.74,17.18 -55.05,22.46 -67.82,22.46 -8.37,0 -22.91,-1.76 -22.91,-15.85 0,-22.47 100.86,-23.35 100.86,-91.18 0,-42.278 -29.94,-66.059 -82.8,-66.059 -32.59,0 -63.86,10.129 -72.67,14.973 v 44.926 c 20.71,-8.81 41.4,-17.18 65.63,-17.18 18.93,0 30.82,5.73 30.82,14.98 0,29.51 -100.85,24.22 -100.85,90.73 0,37.43 33.91,62.54 84.12,62.54 25.54,0 44.48,-4.41 65.62,-14.98 v -45.36"
         style="fill:#000000;fill-opacity:1;fill-rule:nonzero;stroke:none"
         id="path24" />
      <path
         d="m 2852.03,1137.77 h 0.88 c 18.5,23.34 39.2,33.91 64.3,33.91 37,0 74.44,-22.47 74.44,-77.52 V 964.672 h -63.87 v 115.838 c 0,30.39 -13.21,44.48 -33.03,44.48 -14.97,0 -27.75,-9.25 -42.72,-30.83 V 964.672 h -63.87 v 300.378 h 63.87 v -127.28"
         style="fill:#000000;fill-opacity:1;fill-rule:nonzero;stroke:none"
         id="path26" />
      <path
         d="m 1930.21,877.633 h -86.77 L 1722.33,577.254 h 79.27 l 22.46,59.457 h 134.34 l 24.66,-59.457 h 80.6 z m 6.17,-188.512 h -92.49 l 44.04,116.715 z"
         style="fill:#000000;fill-opacity:1;fill-rule:nonzero;stroke:none"
         id="path28" />
      <path
         d="m 2144.26,751.227 c 20.26,23.339 40.08,33.031 66.07,33.031 31.71,0 73.99,-18.059 73.99,-77.961 V 577.254 h -63.87 v 123.758 c 0,28.633 -13.65,40.523 -31.7,40.523 -15.86,0 -27.75,-8.371 -44.49,-33.472 V 577.254 h -63.86 v 203.039 h 63.86 v -29.066"
         style="fill:#000000;fill-opacity:1;fill-rule:nonzero;stroke:none"
         id="path30" />
      <path
         d="m 2471.94,736.688 h -73.99 v -83.68 c 0,-19.82 11.45,-32.594 31.27,-32.594 13.21,0 25.54,3.082 42.72,11.895 v -46.246 c -22.46,-9.254 -39.2,-12.774 -59.02,-12.774 -42.28,0 -78.84,19.379 -78.84,76.195 v 87.204 h -29.06 v 12.335 l 85,95.133 h 7.93 v -63.863 h 73.99 v -43.605"
         style="fill:#000000;fill-opacity:1;fill-rule:nonzero;stroke:none"
         id="path32" />
      <path
         d="m 2701.4,627.461 c -14.97,-10.57 -19.82,-11.449 -24.22,-11.449 -6.6,0 -10.57,3.961 -10.57,14.093 v 92.489 c 0,44.484 -34.79,61.664 -85.88,61.664 -32.16,0 -61.67,-8.367 -88.09,-24.664 v -51.973 c 20.26,20.699 49.33,33.914 74.87,33.914 27.75,0 36.56,-14.972 35.24,-33.914 -85.01,-26.426 -120.68,-36.113 -120.68,-84.562 0,-25.547 24.22,-49.77 56.81,-49.77 22.03,0 42.28,6.164 66.95,22.899 4.4,-16.293 14.53,-22.899 35.67,-22.899 17.18,0 42.29,7.926 59.9,18.5 z m -98.65,-0.883 c -10.57,-9.687 -23.35,-15.41 -35.24,-15.41 -11.45,0 -20.7,9.687 -20.7,21.582 0,20.258 18.06,29.066 55.94,42.719 v -48.891"
         style="fill:#000000;fill-opacity:1;fill-rule:nonzero;stroke:none"
         id="path34" />
      <path
         d="m 2782.44,722.156 h 0.88 c 18.94,42.282 40.08,62.102 64.74,62.102 12.78,0 23.79,-4.844 42.29,-18.5 l -17.62,-56.371 c -16.73,10.566 -27.75,14.972 -37.87,14.972 -23.35,0 -38.32,-22.023 -52.42,-59.461 v -87.644 h -63.87 v 203.039 h 63.87 v -58.137"
         style="fill:#000000;fill-opacity:1;fill-rule:nonzero;stroke:none"
         id="path36" />
      <path
         d="m 3069.65,586.941 c -25.55,-9.246 -47.13,-13.652 -68.71,-13.652 -71.35,0 -117.6,41.399 -117.6,104.824 0,62.102 48.01,106.145 114.96,106.145 20.7,0 47.12,-5.285 68.27,-13.215 V 723.48 c -16.74,8.805 -36.12,13.653 -51.97,13.653 -38.32,0 -62.99,-22.906 -62.99,-58.582 0,-36.113 24.23,-59.899 60.78,-59.899 15.42,0 29.07,3.524 57.26,14.098 v -45.809"
         style="fill:#000000;fill-opacity:1;fill-rule:nonzero;stroke:none"
         id="path38" />
      <path
         d="m 3247.14,736.688 h -73.99 v -83.68 c 0,-19.82 11.45,-32.594 31.27,-32.594 13.21,0 25.54,3.082 42.72,11.895 v -46.246 c -22.46,-9.254 -39.19,-12.774 -59.02,-12.774 -42.28,0 -78.84,19.379 -78.84,76.195 v 87.204 h -29.06 v 12.335 l 85,95.133 h 7.93 v -63.863 h 73.99 v -43.605"
         style="fill:#000000;fill-opacity:1;fill-rule:nonzero;stroke:none"
         id="path40" />
      <path
         d="m 3341.83,846.359 c 0,-19.379 -15.86,-35.238 -35.23,-35.238 -19.38,0 -35.23,15.859 -35.23,35.238 0,19.379 15.85,35.235 35.23,35.235 19.37,0 35.23,-15.856 35.23,-35.235 z m -3.08,-269.105 h -63.86 v 203.039 h 63.86 V 577.254"
         style="fill:#000000;fill-opacity:1;fill-rule:nonzero;stroke:none"
         id="path42" />
      <path
         d="m 3559.41,586.941 c -25.55,-9.246 -47.13,-13.652 -68.71,-13.652 -71.35,0 -117.6,41.399 -117.6,104.824 0,62.102 48.01,106.145 114.96,106.145 20.7,0 47.13,-5.285 68.26,-13.215 V 723.48 c -16.73,8.805 -36.11,13.653 -51.97,13.653 -38.32,0 -62.98,-22.906 -62.98,-58.582 0,-36.113 24.22,-59.899 60.78,-59.899 15.42,0 29.07,3.524 57.26,14.098 v -45.809"
         style="fill:#000000;fill-opacity:1;fill-rule:nonzero;stroke:none"
         id="path44" />
      <path
         d="m 3889.3,799.672 c -43.61,19.379 -69.59,26.867 -95.14,26.867 -26.86,0 -44.05,-9.691 -44.05,-24.664 0,-45.363 152.84,-32.594 152.84,-137.418 0,-57.695 -48.45,-91.168 -115.4,-91.168 -52.41,0 -78.39,13.652 -108.34,29.07 v 64.743 c 43.16,-28.629 69.58,-38.758 102.62,-38.758 28.63,0 44.04,10.129 44.04,27.746 0,49.328 -152.83,31.269 -152.83,139.18 0,51.968 44.93,86.324 114.51,86.324 33.48,0 63.86,-7.047 101.75,-23.34 v -58.582"
         style="fill:#000000;fill-opacity:1;fill-rule:nonzero;stroke:none"
         id="path46" />
      <path
         d="m 4075.59,606.32 c -20.25,-23.34 -40.08,-33.031 -65.62,-33.031 -40.08,0 -74.44,24.664 -74.44,77.074 v 129.93 h 63.87 V 654.77 c 0,-28.629 15.41,-38.758 32.15,-38.758 19.38,0 37,14.972 43.6,34.793 v 129.488 h 64.31 V 577.254 h -63.87 v 29.066"
         style="fill:#000000;fill-opacity:1;fill-rule:nonzero;stroke:none"
         id="path48" />
      <path
         d="m 4242.52,722.156 h 0.88 c 18.93,42.282 40.08,62.102 64.74,62.102 12.78,0 23.78,-4.844 42.29,-18.5 l -17.62,-56.371 c -16.74,10.566 -27.75,14.972 -37.88,14.972 -23.34,0 -38.32,-22.023 -52.41,-59.461 v -87.644 h -63.87 v 203.039 h 63.87 v -58.137"
         style="fill:#000000;fill-opacity:1;fill-rule:nonzero;stroke:none"
         id="path50" />
      <path
         d="m 4348.66,780.293 h 68.27 l 43.16,-111.867 43.6,111.867 h 67.83 l -93.37,-207.004 h -35.68 l -93.81,207.004"
         style="fill:#000000;fill-opacity:1;fill-rule:nonzero;stroke:none"
         id="path52" />
      <path
         d="m 4777.3,640.234 c -29.95,-21.582 -49.77,-29.066 -75.31,-29.066 -40.08,0 -64.75,21.141 -66.95,57.258 h 145.79 c 3.08,73.992 -45.81,115.832 -104.83,115.832 -62.54,0 -107.03,-44.043 -107.03,-106.145 0,-63.425 46.25,-104.824 117.6,-104.824 15.86,0 54.18,0 90.73,26.867 z m -140.94,61.661 c 2.64,28.187 18.94,44.484 44.04,44.484 24.67,0 41.41,-16.734 44.05,-44.484 h -88.09"
         style="fill:#000000;fill-opacity:1;fill-rule:nonzero;stroke:none"
         id="path54" />
      <path
         d="m 4866.31,479.914 h -67.83 l 59.46,130.367 -79.27,170.012 h 68.26 l 42.72,-104.383 45.81,104.383 h 66.95 l -136.1,-300.379"
         style="fill:#000000;fill-opacity:1;fill-rule:nonzero;stroke:none"
         id="path56" />
      <path
         d="m 1882.74,144.289 h -25.9 l -68.27,79.133 v -79.133 h -30.78 v 123.5 h 28.24 l 65.92,-75.508 v 75.508 h 30.79 v -123.5"
         style="fill:#000000;fill-opacity:1;fill-rule:nonzero;stroke:none"
         id="path58" />
      <path
         d="m 1994.47,267.789 h -35.68 l -49.8,-123.5 h 32.6 l 9.23,24.449 h 55.24 l 10.13,-24.449 h 33.14 z m 2.53,-77.5 h -38.03 l 18.12,47.981 z"
         style="fill:#000000;fill-opacity:1;fill-rule:nonzero;stroke:none"
         id="path60" />
      <path
         d="m 2173.38,245.148 h -44.73 V 144.289 h -30.78 v 100.859 h -44.73 v 22.641 h 120.24 v -22.641"
         style="fill:#000000;fill-opacity:1;fill-rule:nonzero;stroke:none"
         id="path62" />
      <path
         d="m 2321.69,267.789 v -70.078 c 0,-40.922 -27.88,-55.039 -61.76,-55.039 -35.85,0 -61.74,16.648 -61.74,54.859 v 70.258 h 30.78 v -70.988 c 0,-17.731 12.86,-28.43 30.61,-28.43 16.3,0 31.33,8.52 31.33,30.609 v 68.809 h 30.78"
         style="fill:#000000;fill-opacity:1;fill-rule:nonzero;stroke:none"
         id="path64" />
      <path
         d="m 2355.55,267.789 v -123.5 h 30.79 v 50.16 h 8.87 c 16.66,0 21.54,-23.711 34.77,-50.16 h 33.85 c -17.37,36.223 -21.17,51.441 -33.85,57.77 14.13,6.523 21.18,16.66 21.18,30.242 0,18.48 -15.02,35.488 -40.38,35.488 z m 30.79,-22.641 h 15.57 c 11.59,0 17.57,-4.699 17.57,-13.937 0,-10.5 -8.33,-14.121 -16.84,-14.121 h -16.3 v 28.058"
         style="fill:#000000;fill-opacity:1;fill-rule:nonzero;stroke:none"
         id="path66" />
      <path
         d="m 2563.98,267.789 h -35.67 l -49.8,-123.5 h 32.59 l 9.24,24.449 h 55.23 l 10.14,-24.449 h 33.14 z m 2.53,-77.5 h -38.02 l 18.1,47.981 z"
         style="fill:#000000;fill-opacity:1;fill-rule:nonzero;stroke:none"
         id="path68" />
      <path
         d="m 2739.09,144.289 h -94.16 v 123.5 h 30.78 V 166.93 h 63.38 v -22.641"
         style="fill:#000000;fill-opacity:1;fill-rule:nonzero;stroke:none"
         id="path70" />
      <path
         d="m 2907.17,144.289 h -91.12 v 123.5 h 89.85 v -22.641 h -59.06 V 219.27 h 56.35 v -22.641 h -56.35 V 166.93 h 60.33 v -22.641"
         style="fill:#000000;fill-opacity:1;fill-rule:nonzero;stroke:none"
         id="path72" />
      <path
         d="m 3064.9,144.289 h -25.89 l -68.28,79.133 v -79.133 h -30.79 v 123.5 h 28.26 l 65.92,-75.508 v 75.508 h 30.78 v -123.5"
         style="fill:#000000;fill-opacity:1;fill-rule:nonzero;stroke:none"
         id="path74" />
      <path
         d="m 3159.23,142.672 h -13.39 l -59.76,125.117 h 33.5 l 32.6,-70.437 30.96,70.437 h 33.14 l -57.05,-125.117"
         style="fill:#000000;fill-opacity:1;fill-rule:nonzero;stroke:none"
         id="path76" />
      <path
         d="m 3269.15,144.289 h -30.78 v 123.5 h 30.78 v -123.5"
         style="fill:#000000;fill-opacity:1;fill-rule:nonzero;stroke:none"
         id="path78" />
      <path
         d="m 3309.34,267.789 v -123.5 h 30.81 v 50.16 h 8.88 c 16.66,0 21.53,-23.711 34.76,-50.16 h 33.83 c -17.38,36.223 -21.19,51.441 -33.83,57.77 14.11,6.523 21.17,16.66 21.17,30.242 0,18.48 -15.04,35.488 -40.37,35.488 z m 30.81,-22.641 h 15.57 c 11.58,0 17.57,-4.699 17.57,-13.937 0,-10.5 -8.33,-14.121 -16.86,-14.121 h -16.28 v 28.058"
         style="fill:#000000;fill-opacity:1;fill-rule:nonzero;stroke:none"
         id="path80" />
      <path
         d="m 3577.16,206.039 c 0,29.711 -24.09,63.383 -70.63,63.383 -46.55,0 -70.8,-33.492 -70.8,-63.383 0,-31.5 25.52,-63.367 70.8,-63.367 44.35,0 70.63,31.68 70.63,63.367 z m -31.7,0 c 0,-22.629 -15.58,-37.668 -38.93,-37.668 -23.53,0 -39.11,15.039 -39.11,37.668 0,22.633 15.58,37.68 39.11,37.68 23.35,0 38.93,-15.047 38.93,-37.68"
         style="fill:#000000;fill-opacity:1;fill-rule:nonzero;stroke:none"
         id="path82" />
      <path
         d="m 3731.79,144.289 h -25.9 l -68.26,79.133 v -79.133 h -30.77 v 123.5 h 28.24 l 65.9,-75.508 v 75.508 h 30.79 v -123.5"
         style="fill:#000000;fill-opacity:1;fill-rule:nonzero;stroke:none"
         id="path84" />
      <path
         d="m 3877.38,267.789 h 26.81 v -123.5 h -30.78 v 77.141 l -33.32,-38.75 h -4.72 l -33.31,38.75 v -77.141 h -30.77 v 123.5 h 26.79 l 39.67,-45.809 39.63,45.809"
         style="fill:#000000;fill-opacity:1;fill-rule:nonzero;stroke:none"
         id="path86" />
      <path
         d="m 4034.75,144.289 h -91.08 v 123.5 h 89.83 v -22.641 h -59.04 V 219.27 h 56.31 v -22.641 h -56.31 V 166.93 h 60.29 v -22.641"
         style="fill:#000000;fill-opacity:1;fill-rule:nonzero;stroke:none"
         id="path88" />
      <path
         d="m 4195.2,144.289 h -25.9 l -68.28,79.133 v -79.133 h -30.77 v 123.5 h 28.26 l 65.92,-75.508 v 75.508 h 30.77 v -123.5"
         style="fill:#000000;fill-opacity:1;fill-rule:nonzero;stroke:none"
         id="path90" />
      <path
         d="m 4341.7,245.148 h -44.74 V 144.289 h -30.77 v 100.859 h -44.73 v 22.641 h 120.24 v -22.641"
         style="fill:#000000;fill-opacity:1;fill-rule:nonzero;stroke:none"
         id="path92" />
      <path
         d="m 4417.94,267.789 v -123.5 h 30.78 v 50.16 h 8.87 c 16.66,0 21.55,-23.711 34.77,-50.16 h 33.87 c -17.38,36.223 -21.19,51.441 -33.87,57.77 14.12,6.523 21.19,16.66 21.19,30.242 0,18.48 -15.02,35.488 -40.38,35.488 z m 30.78,-22.641 h 15.57 c 11.6,0 17.56,-4.699 17.56,-13.937 0,-10.5 -8.33,-14.121 -16.82,-14.121 h -16.31 v 28.058"
         style="fill:#000000;fill-opacity:1;fill-rule:nonzero;stroke:none"
         id="path94" />
      <path
         d="m 4643.75,144.289 h -91.09 v 123.5 h 89.81 v -22.641 h -59.03 V 219.27 h 56.33 v -22.641 h -56.33 V 166.93 h 60.31 v -22.641"
         style="fill:#000000;fill-opacity:1;fill-rule:nonzero;stroke:none"
         id="path96" />
      <path
         d="m 4759.29,235.75 c -17.94,7.969 -28.61,11.039 -39.11,11.039 -11.05,0 -18.13,-3.988 -18.13,-10.141 0,-18.66 62.85,-13.41 62.85,-56.5 0,-23.718 -19.92,-37.476 -47.44,-37.476 -21.56,0 -32.23,5.598 -44.54,11.937 v 26.621 c 17.74,-11.761 28.59,-15.929 42.18,-15.929 11.76,0 18.11,4.168 18.11,11.41 0,20.277 -62.84,12.848 -62.84,57.219 0,21.371 18.48,35.492 47.09,35.492 13.76,0 26.25,-2.891 41.83,-9.59 V 235.75"
         style="fill:#000000;fill-opacity:1;fill-rule:nonzero;stroke:none"
         id="path98" />
      <path
         d="m 4888.94,144.289 h -91.08 v 123.5 h 89.81 v -22.641 h -59.02 V 219.27 h 56.31 v -22.641 h -56.31 V 166.93 h 60.29 v -22.641"
         style="fill:#000000;fill-opacity:1;fill-rule:nonzero;stroke:none"
         id="path100" />
      <path
         d="m 4991.98,267.789 h -35.67 l -49.81,-123.5 h 32.61 l 9.22,24.449 h 55.25 l 10.13,-24.449 h 33.15 z m 2.53,-77.5 h -38.02 l 18.1,47.981 z"
         style="fill:#000000;fill-opacity:1;fill-rule:nonzero;stroke:none"
         id="path102" />
      <path
         d="m 5068.4,267.789 v -123.5 h 30.79 v 50.16 h 8.87 c 16.65,0 21.54,-23.711 34.75,-50.16 h 33.88 c -17.38,36.223 -21.19,51.441 -33.88,57.77 14.14,6.523 21.2,16.66 21.2,30.242 0,18.48 -15.04,35.488 -40.37,35.488 z m 30.79,-22.641 h 15.56 c 11.59,0 17.56,-4.699 17.56,-13.937 0,-10.5 -8.32,-14.121 -16.82,-14.121 h -16.3 v 28.058"
         style="fill:#000000;fill-opacity:1;fill-rule:nonzero;stroke:none"
         id="path104" />
      <path
         d="m 5313.4,154.98 c -17.2,-8.871 -30.23,-12.308 -48.54,-12.308 -47.98,0 -71.87,31.148 -71.87,63.008 0,32.961 26.98,63.742 74.25,63.742 17.2,0 32.58,-3.613 44.71,-10.852 v -27.539 c -13.57,7.61 -27.33,12.688 -42.55,12.688 -26.25,0 -44.73,-15.578 -44.73,-37.489 0,-22.089 18.29,-37.859 44.02,-37.859 16.1,0 26.97,5.07 44.71,13.59 V 154.98"
         style="fill:#000000;fill-opacity:1;fill-rule:nonzero;stroke:none"
         id="path106" />
      <path
         d="m 5468.42,144.289 h -30.79 v 49.981 h -61.57 v -49.981 h -30.8 v 123.5 h 30.8 v -49.617 h 61.57 v 49.617 h 30.79 v -123.5"
         style="fill:#000000;fill-opacity:1;fill-rule:nonzero;stroke:none"
         id="path108" />
      <path
         d="m 5675.94,154.98 c -17.2,-8.871 -30.25,-12.308 -48.52,-12.308 -48,0 -71.89,31.148 -71.89,63.008 0,32.961 26.97,63.742 74.23,63.742 17.2,0 32.61,-3.613 44.73,-10.852 v -27.539 c -13.57,7.61 -27.35,12.688 -42.56,12.688 -26.26,0 -44.72,-15.578 -44.72,-37.489 0,-22.089 18.29,-37.859 44,-37.859 16.12,0 26.99,5.07 44.73,13.59 V 154.98"
         style="fill:#000000;fill-opacity:1;fill-rule:nonzero;stroke:none"
         id="path110" />
      <path
         d="m 5839.27,206.039 c 0,29.711 -24.08,63.383 -70.6,63.383 -46.55,0 -70.83,-33.492 -70.83,-63.383 0,-31.5 25.56,-63.367 70.83,-63.367 44.35,0 70.6,31.68 70.6,63.367 z m -31.68,0 c 0,-22.629 -15.57,-37.668 -38.92,-37.668 -23.56,0 -39.12,15.039 -39.12,37.668 0,22.633 15.56,37.68 39.12,37.68 23.35,0 38.92,-15.047 38.92,-37.68"
         style="fill:#000000;fill-opacity:1;fill-rule:nonzero;stroke:none"
         id="path112" />
      <path
         d="m 5991.21,267.789 v -70.078 c 0,-40.922 -27.89,-55.039 -61.74,-55.039 -35.86,0 -61.76,16.648 -61.76,54.859 v 70.258 h 30.79 v -70.988 c 0,-17.731 12.86,-28.43 30.59,-28.43 16.31,0 31.33,8.52 31.33,30.609 v 68.809 h 30.79"
         style="fill:#000000;fill-opacity:1;fill-rule:nonzero;stroke:none"
         id="path114" />
      <path
         d="m 6150.21,144.289 h -25.9 l -68.26,79.133 v -79.133 h -30.79 v 123.5 h 28.26 l 65.9,-75.508 v 75.508 h 30.79 v -123.5"
         style="fill:#000000;fill-opacity:1;fill-rule:nonzero;stroke:none"
         id="path116" />
      <path
         d="m 6300.34,154.98 c -17.22,-8.871 -30.25,-12.308 -48.54,-12.308 -47.98,0 -71.89,31.148 -71.89,63.008 0,32.961 26.97,63.742 74.23,63.742 17.21,0 32.61,-3.613 44.73,-10.852 v -27.539 c -13.57,7.61 -27.33,12.688 -42.55,12.688 -26.25,0 -44.73,-15.578 -44.73,-37.489 0,-22.089 18.31,-37.859 44,-37.859 16.14,0 27,5.07 44.75,13.59 V 154.98"
         style="fill:#000000;fill-opacity:1;fill-rule:nonzero;stroke:none"
         id="path118" />
      <path
         d="m 6363.88,144.289 h -30.77 v 123.5 h 30.77 v -123.5"
         style="fill:#000000;fill-opacity:1;fill-rule:nonzero;stroke:none"
         id="path120" />
      <path
         d="m 6493.73,144.289 h -94.16 v 123.5 h 30.77 V 166.93 h 63.39 v -22.641"
         style="fill:#000000;fill-opacity:1;fill-rule:nonzero;stroke:none"
         id="path122" />
      <path
         d="m 726.207,57.2617 c 369.433,0 668.943,299.5003 668.943,668.9183 0,369.45 -299.51,668.95 -668.943,668.95 -369.449,0 -668.9453,-299.5 -668.9453,-668.95 0,-369.418 299.4963,-668.9183 668.9453,-668.9183 z M 0,726.18 c 0,401.08 325.133,726.21 726.207,726.21 401.053,0 726.203,-325.13 726.203,-726.21 C 1452.41,325.141 1127.26,0 726.207,0 325.133,0 0,325.141 0,726.18"
         style="fill:#000000;fill-opacity:1;fill-rule:nonzero;stroke:none"
         id="path124" />
      <path
         d="m 247.656,1016.13 -3.695,0.32 -0.969,-9 -0.961,-5.31 0.961,-1.61 0.488,-3.374 0.637,-2.406 -1.441,-5.305 -0.324,-4.336 -0.645,-4.179 3.215,-4.34 1.125,-4.176 -0.156,-3.535 1.445,-4.176 -0.645,-2.418 0.485,-4.176 1.441,-3.855 0.488,-1.449 0.797,-3.059 -1.441,-2.086 -0.648,-0.797 0.648,-0.484 1.762,-1.125 0.484,-0.16 3.215,-2.086 2.891,-5.145 2.574,-5.304 0.64,-1.77 -0.156,-2.246 0.961,-0.645 0.801,-3.058 1.453,-2.238 2.57,-0.813 1.125,-1.769 0.965,-1.29 0.32,-2.882 -0.484,-1.45 c 0,0 1.445,-2.246 1.93,-2.406 0.484,-0.168 1.445,-1.449 1.445,-1.449 l 0.484,-0.637 v -1.937 l 1.926,-5.305 2.414,-1.441 2.571,-0.813 0.964,-0.957 2.891,0.797 2.895,0.813 4.984,-4.012 5.621,-0.813 6.75,-2.734 4.977,-4.34 2.894,-4.652 2.09,-1.77 4.316,-7.355 3.563,-0.367 1.601,-3.043 -1.601,-2.735 -3.059,-0.644 h -5.941 -9.805 l -2.734,-0.805 -1.93,-7.223 1.606,-2.261 1.773,-2.887 4.82,-1.453 0.645,-1.926 0.32,-3.535 2.242,-1.77 1.774,-0.16 1.773,-1.609 0.317,-1.926 -2.571,-4.492 0.641,-2.582 -1.605,-4.172 -2.25,-0.813 -0.641,-4.015 2.73,-3.043 3.051,1.117 3.535,4.187 2.735,1.926 4.336,-0.808 1.769,-1.45 1.926,-3.539 0.805,-5.464 0.16,-2.723 1.125,-0.32 h 1.453 l 2.406,11.41 2.57,4.172 2.481,-1.961 2.18,-0.762 1.765,-3.539 0.809,-3.856 3.211,-3.695 3.535,0.477 2.406,2.582 3.219,3.855 5.301,3.52 9.48,-0.793 5.305,-2.727 0.805,-2.738 -1.93,-3.539 -3.531,-2.406 -2.575,-2.723 -1.285,-4.984 -5.14,-3.379 -1.93,-3.219 -2.25,-2.723 -0.805,-2.422 -2.25,-4.015 5.465,-0.477 4.344,-1.93 2.406,-7.707 2.731,-2.582 2.41,-1.925 3.855,-0.797 3.219,-2.899 0.156,-5.785 -3.375,-3.219 -3.367,-2.562 v -4.988 l -2.258,-3.696 -5.777,-4.172 -4.985,-1.929 -2.085,-5.461 -1.293,-5.149 -3.375,-6.257 -2.086,-13.192 1.601,-3.219 -0.64,-6.578 -1.286,-10.273 0.645,-3.555 -0.477,-2.246 -9.164,-4.172 -1.445,-1.929 -0.324,-6.915 1.445,-2.738 -0.801,-2.23 -0.164,-2.899 1.289,-3.379 0.961,-2.086 0.965,-4.332 1.77,-6.117 3.379,-4.668 4.175,-2.406 1.125,-2.566 0.961,-1.926 5.149,2.722 5.785,0.336 1.922,0.477 2.73,1.117 2.574,3.375 0.321,3.379 2.09,1.129 3.695,0.16 1.93,-2.578 1.128,-0.797 2.887,1.926 3.055,5.144 2.574,0.637 3.051,-0.316 2.57,-0.813 2.41,3.059 2.735,2.246 3.054,0.176 4.012,-1.61 0.805,-3.379 1.289,-4.187 1.285,-5.941 -1.129,-2.727 -2.25,-2.422 -1.601,-4.648 0.316,-2.407 0.164,-1.945 1.609,-1.609 3.215,-1.75 1.766,-3.059 0.48,-2.09 -1.605,-4.664 -2.414,-3.539 -2.887,-1.75 -0.805,-2.582 -0.48,-4.828 1.441,-3.852 0.969,-4.988 -0.969,-5.129 0.645,-3.058 2.086,-4.016 7.39,-15.434 0.168,-4.175 1.766,-4.172 8.355,-15.278 2.731,-3.203 0.801,-2.261 -0.157,-8.829 -0.48,-6.433 2.41,-1.77 3.695,1.293 6.106,2.899 4.18,0.476 5.625,-0.812 3.695,-0.477 1.285,-2.086 0.805,-1.609 0.16,-2.902 23.141,-16.071 5.945,-1.117 8.844,-3.375 16.871,-5.148 3.215,-1.766 0.32,-2.09 1.125,-0.316 1.773,0.316 6.739,-2.898 3.695,-2.403 13.184,-1.609 4.98,-0.637 5.941,4.012 8.036,1.77 13.179,6.914 4.668,0.957 4.016,-3.203 9.16,-4.989 6.43,-2.246 4.172,4.813 4.179,8.679 3.699,2.582 5.297,0.637 7.082,1.449 6.258,1.93 5.145,-1.117 7.55,-6.117 36.641,-7.071 8.203,0.157 14.617,-4.649 9.965,-8.363 18.957,-5.942 7.887,-0.972 3.691,4.824 12.047,-0.813 3.375,11.583 4.184,1.117 4.012,-1.93 1.929,-4.012 4.977,-7.55 6.437,-14.465 -0.644,-3.7 2.562,-2.402 0.813,-6.101 -1.617,-3.7 -4.653,-2.422 6.102,-0.949 1.777,-1.289 0.153,-3.219 -1.93,-3.543 -1.113,-5.937 -3.379,-2.902 -0.637,-1.118 2.07,-6.589 -0.468,-2.571 -1.45,-1.922 -1.281,-2.25 0.156,-1.129 -1.925,-3.378 -2.086,-2.743 -1.293,-1.609 -2.403,-1.109 -4.351,-1.61 -3.36,-1.121 0.153,-1.601 -0.153,-5.149 -0.511,-4.16 -2.231,-4.68 -0.484,-4.488 0.328,-1.934 0.094,-4.648 -0.899,-3.871 -0.965,-3.059 1.114,-2.09 2.582,-4.808 1.289,-0.973 4.812,-0.64 6.11,-1.75 3.05,-1.629 2.891,-2.239 1.938,-1.769 2.722,-0.961 5.789,-0.652 5.305,1.132 h 2.098 l 7.39,1.118 c 0,0 7.391,-0.637 7.867,-0.797 0.481,-0.16 5.625,-1.293 5.625,-1.293 l 4.981,0.812 5.629,-0.32 3.219,-1.922 3.203,-2.418 c 0,0 8.679,-4.66 9.316,-4.66 0.652,0 13.191,-2.102 13.191,-2.102 l 4.172,-0.64 8.032,3.062 h 5.621 l 4.828,-2.082 6.586,-3.379 3.379,0.16 2.093,3.372 3.696,4.019 2.246,1.449 2.566,1.289 7.567,1.93 4.484,2.723 5.305,1.129 4.179,0.8 2.254,-0.48 2.895,-2.41 3.367,-3.531 1.281,-0.649 h 2.266 l 3.375,2.578 1.754,0.633 2.261,-0.16 1.61,-0.16 2.246,-0.16 4.977,-1.442 3.378,-2.57 2.414,-1.61 2.086,0.321 2.407,1.609 2.414,2.25 1.926,2.078 2.414,1.934 3.535,0.488 3.211,2.891 1.773,2.418 2.406,1.769 3.692,0.461 h 1.773 l 4.66,2.582 2.414,1.77 3.528,1.75 3.695,2.09 2.254,0.168 3.217,0.32 2.73,2.723 2.72,1.769 3.23,2.09 2.89,1.289 2.24,0.16 3.22,1.129 2.41,2.41 2.58,2.082 2.4,0.34 4.18,0.789 4.66,2.578 5.15,5.453 2.4,3.059 5.63,6.602 6.74,10.269 3.06,2.738 0.81,1.121 0.48,4.5 -2.58,13.02 0.49,3.379 0.8,2.082 2.58,2.07 3.37,0.66 4.34,-0.32 1.61,-0.48 h 1.6 l 4.66,1.609 3.21,3.199 0.81,7.235 -0.49,4.347 0.49,4.653 3.53,5.785 5.79,5.465 4.5,4.507 -0.16,10.766 3.69,7.551 2.25,4.812 7.89,12.696 8.5,3.695 5.78,4.352 2.74,5.781 2.73,1.289 5.62,2.09 4.03,1.429 4.34,2.743 2.89,17.203 -1.29,3.523 -4.01,7.391 -4.19,10.785 1.45,4.156 5.95,3.871 2.89,2.727 3.54,6.594 4.98,5.128 3.7,5.305 13.01,8.203 9.64,3.219 0.33,1.93 -2.89,3.695 -1.29,8.52 4.65,6.105 -2.08,13.648 1.93,7.075 6.26,7.711 3.7,4.984 1.93,6.914 -1.13,2.086 -2.89,2.09 -5.31,1.289 -3.21,-0.477 -4.82,0.953 -5.13,1.293 -3.06,4.012 -2.1,3.059 -0.63,6.261 2.25,13.016 -0.16,5.797 -2.26,5.129 -1.61,10.609 1.29,3.539 4.99,5.305 4.5,1.609 3.05,1.114 0.96,9.32 -2.73,3.375 -3.7,4.031 0.16,3.203 -0.48,1.77 -6.26,4.012 -3.53,5.464 -0.34,8.84 0.97,2.246 0.48,1.77 -0.48,1.449 -2.58,1.449 -3.21,0.321 -2.09,-0.481 -3.2,0.641 -2.74,0.812 -4.18,1.289 -5.14,2.563 -3.38,2.25 -3.04,3.535 -5.47,7.391 -4.98,4.492 -5.15,3.219 -4.17,0.476 -2.09,-0.797 h -1.93 l -2.26,0.16 -1.75,0.973 -3.06,3.52 -5.79,4.828 -4.01,6.261 -1.29,10.129 1.45,6.578 3.68,4.829 2.74,8.207 v 5.457 3.695 l 2.58,4.988 5.13,6.11 4.34,1.597 0.33,1.61 -2.74,3.855 -2.72,10.125 -3.38,13.5 -2.41,13.82 -2.58,4.977 -1.44,1.293 -1.6,2.254 -3.7,16.871 -3.21,4.332 -0.66,7.883 -1.28,7.226 0.17,5.621 1.6,5.633 3.53,0.637 1.14,3.695 -0.33,4.016 0.16,4.18 0.8,2.734 0.81,3.051 0.64,2.729 -1.93,3.86 -6.26,8.84 -7.07,7.55 -4.51,2.09 -12.05,3.06 -7.07,-4.83 -2.89,-0.96 -2.57,0.8 -3.37,6.11 -1.45,2.73 -2.42,0.32 -1.76,-2.25 -2.25,-3.05 h -2.09 l -2.4,0.49 -1.61,1.11 -2.41,3.22 -1.29,5.62 -0.97,2.26 -2.89,-0.65 -2.57,-1.45 -1.93,0.81 -2.56,1.12 -6.11,3.71 h -3.55 l -3.85,0.15 -4.017,2.58 -3.699,2.56 -9.476,0.32 -6.27,1.78 -9.152,0.47 -4.348,-0.8 -0.973,-1.61 -2.562,-2.72 -3.379,-3.38 -3.375,-0.81 -2.246,-1.12 h -3.379 l -3.527,0.16 -0.805,1.93 -0.477,3.38 -2.734,3.69 -2.094,3.54 1.129,4.65 0.641,2.57 -5.309,10.61 -0.804,3.87 -0.149,4.33 -2.898,3.69 -7.227,1.61 -6.117,-0.47 -7.867,2.72 h -10.285 l -6.11,-1.45 -1.601,-1.43 -4.024,-0.66 -4.656,0.32 -8.031,1.62 -2.899,0.15 -2.722,-0.8 -3.227,0.8 -3.051,1.61 -5.465,0.32 -3.855,0.97 -3.855,4.66 -6.594,3.21 -7.551,6.28 -4.34,2.88 -11.097,5.78 -3.528,3.22 -13.015,4.35 -7.391,4.17 -8.832,-0.48 -3.219,-2.9 -2.254,-0.97 -3.847,-0.8 -1.946,0.64 -8.664,3.06 -6.269,0.89 -7.399,2.49 -4.976,-1.93 -3.532,-0.32 -3.863,2.41 -5.137,-0.81 -6.109,-1.6 -9.805,1.28 -8.031,1.29 -6.273,1.92 -6.907,1.93 -5.136,1.77 -3.864,1.13 -3.378,-1.13 -2.731,-2.56 -3.855,-2.26 -2.407,-1.77 -2.246,-1.6 -2.582,-1.61 -2.57,-1.61 -6.109,-1.45 -8.188,-1.44 -9.16,-2.09 -10.133,-2.41 -4.969,-3.85 -1.609,-1.93 -3.059,-4.67 -2.566,-0.96 -2.418,-2.58 -2.09,-3.05 -1.758,-1.92 -0.488,-2.42 -0.477,-2.72 v -3.06 l -0.812,-2.24 -1.434,-1.77 -1.457,-1.77 -2.238,-1.93 -2.582,-2.08 -2.086,-1.3 -2.09,-1.92 -2.242,-2.09 -2.266,-2.09 -2.246,-3.37 -2.562,-1.77 -2.414,-2.09 -2.414,-1.61 -3.856,-2.25 -2.094,-0.97 -1.441,-1.6 -0.476,-1.29 -0.813,-2.08 -0.797,-2.42 -0.488,-2.89 -0.149,-3.05 -0.496,-3.38 -0.476,-3.21 -0.16,-4.34 -0.485,-2.74 v -2.56 l -0.328,-2.58 -1.754,-1.12 -3.781,-0.97 -3.129,-1.28 -2.582,-1.6 -2.723,-2.58 -1.609,-2.41 -1.281,-2.57 v -1.28 -1.13 l 0.953,-1.28 0.805,-1.13 0.804,-0.96 0.965,-0.97 1.465,-1.61 1.434,-1.448 2.085,-2.246 1.125,-2.563 0.165,-1.609 -0.325,-1.77 -1.125,-2.254 -3.058,-3.535 -1.926,-4.015 0.476,-0.168 0.329,-1.114 1.121,-1.769 1.133,-1.449 1.117,-1.45 -0.16,-1.449 -0.797,-4.015 -1.93,-3.051 -1.129,-2.731 -0.965,-2.726 -0.804,-1.934 -0.321,-1.125 -0.801,-2.414 -0.804,-2.73 -0.16,-1.926 -0.321,-3.219 -1.765,-6.101 -3.219,-5.145 -0.477,-3.211 0.157,-5.949 1.449,-5.625 -0.969,-2.899 -0.957,-4.015 0.16,-3.695 -0.644,-1.766 -1.125,-2.09 -2.739,-1.449 -3.043,-1.113 -2.421,-1.938 -2.407,-1.441 -2.414,-1.926 -2.57,-1.93 -2.887,-2.414 -3.058,-0.644 -3.536,-0.805 h -4.015 l -4.02,-1.281 -4.168,-0.477 -2.898,0.317 -7.391,0.32 h -4.82 l -6.434,-1.61 -7.23,-1.769 -9.16,-1.449 -10.446,-3.696 -7.226,-2.722 -5.629,-3.219 -5.945,-1.289 -7.555,-1.609 -4.824,-1.922 -10.442,-3.051 -2.25,3.371 -3.218,5.789 -6.743,1.602 -3.539,3.379 -4.824,3.863 -2.41,4.172 -4.172,2.086 -7.238,4.183 -3.852,2.414 -3.375,-0.32 -3.379,1.922 -4.332,1.605 -5.629,2.254 -8.035,3.211 -5.465,2.891 -3.691,2.09 -2.09,1.289 -4.824,0.476 -2.566,1.449 -3.059,1.125 -3.215,2.247 -4.016,2.093 -3.855,1.602 -3.699,2.73 -5.781,5.633 -5.465,2.574 -4.336,2.246 -6.27,3.696 -4.824,3.375 -4.336,3.855 -3.219,3.219 -3.695,4.492 -2.563,0.973 -3.058,-0.813 -2.731,0.813 -3.863,1.601 -3.695,3.536 -4.02,5.464 -3.851,5.789 -2.571,3.532 h -1.445 l -0.965,-0.965 -0.804,-0.645 -0.969,-0.965 -1.285,-0.636 h -2.086 l -2.735,-0.16 -1.601,0.32 -1.61,3.535 -0.64,3.211 1.125,2.57 0.801,0.489 -1.125,2.078 0.48,2.254 1.285,1.289 1.606,0.488 0.168,1.434 -2.25,2.578 -2.739,2.566 -2.246,2.57 -1.285,3.054 v 4.02 l 0.641,7.39 0.644,2.1"
         style="fill:#000000;fill-opacity:1;fill-rule:nonzero;stroke:none"
         id="path126" />
      <path
         d="m 247.656,1016.13 -3.695,0.32 -0.969,-9 -0.961,-5.31 0.961,-1.61 0.488,-3.374 0.637,-2.406 -1.441,-5.305 -0.324,-4.336 -0.645,-4.179 3.215,-4.34 1.125,-4.176 -0.156,-3.535 1.445,-4.176 -0.645,-2.418 0.485,-4.176 1.441,-3.855 0.488,-1.449 0.797,-3.059 -1.441,-2.086 -0.648,-0.797 0.648,-0.484 1.762,-1.125 0.484,-0.16 3.215,-2.086 2.891,-5.145 2.574,-5.304 0.64,-1.77 -0.156,-2.246 0.961,-0.645 0.801,-3.058 1.453,-2.238 2.57,-0.813 1.125,-1.769 0.965,-1.29 0.32,-2.882 -0.484,-1.45 c 0,0 1.445,-2.246 1.93,-2.406 0.484,-0.168 1.445,-1.449 1.445,-1.449 l 0.484,-0.637 v -1.937 l 1.926,-5.305 2.414,-1.441 2.571,-0.813 0.964,-0.957 2.891,0.797 2.895,0.813 4.984,-4.012 5.621,-0.813 6.75,-2.734 4.977,-4.34 2.894,-4.652 2.09,-1.77 4.316,-7.355 3.563,-0.367 1.601,-3.043 -1.601,-2.735 -3.059,-0.644 h -5.941 -9.805 l -2.734,-0.805 -1.93,-7.223 1.606,-2.261 1.773,-2.887 4.82,-1.453 0.645,-1.926 0.32,-3.535 2.242,-1.77 1.774,-0.16 1.773,-1.609 0.317,-1.926 -2.571,-4.492 0.641,-2.582 -1.605,-4.172 -2.25,-0.813 -0.641,-4.015 2.73,-3.043 3.051,1.117 3.535,4.187 2.735,1.926 4.336,-0.808 1.769,-1.45 1.926,-3.539 0.805,-5.464 0.16,-2.723 1.125,-0.32 h 1.453 l 2.406,11.41 2.57,4.172 2.481,-1.961 2.18,-0.762 1.765,-3.539 0.809,-3.856 3.211,-3.695 3.535,0.477 2.406,2.582 3.219,3.855 5.301,3.52 9.48,-0.793 5.305,-2.727 0.805,-2.738 -1.93,-3.539 -3.531,-2.406 -2.575,-2.723 -1.285,-4.984 -5.14,-3.379 -1.93,-3.219 -2.25,-2.723 -0.805,-2.422 -2.25,-4.015 5.465,-0.477 4.344,-1.93 2.406,-7.707 2.731,-2.582 2.41,-1.925 3.855,-0.797 3.219,-2.899 0.156,-5.785 -3.375,-3.219 -3.367,-2.562 v -4.988 l -2.258,-3.696 -5.777,-4.172 -4.985,-1.929 -2.085,-5.461 -1.293,-5.149 -3.375,-6.257 -2.086,-13.192 1.601,-3.219 -0.64,-6.578 -1.286,-10.273 0.645,-3.555 -0.477,-2.246 -9.164,-4.172 -1.445,-1.929 -0.324,-6.915 1.445,-2.738 -0.801,-2.23 -0.164,-2.899 1.289,-3.379 0.961,-2.086 0.965,-4.332 1.77,-6.117 3.379,-4.668 4.175,-2.406 1.125,-2.566 0.961,-1.926 5.149,2.722 5.785,0.336 1.922,0.477 2.73,1.117 2.574,3.375 0.321,3.379 2.09,1.129 3.695,0.16 1.93,-2.578 1.128,-0.797 2.887,1.926 3.055,5.144 2.574,0.637 3.051,-0.316 2.57,-0.813 2.41,3.059 2.735,2.246 3.054,0.176 4.012,-1.61 0.805,-3.379 1.289,-4.187 1.285,-5.941 -1.129,-2.727 -2.25,-2.422 -1.601,-4.648 0.316,-2.407 0.164,-1.945 1.609,-1.609 3.215,-1.75 1.766,-3.059 0.48,-2.09 -1.605,-4.664 -2.414,-3.539 -2.887,-1.75 -0.805,-2.582 -0.48,-4.828 1.441,-3.852 0.969,-4.988 -0.969,-5.129 0.645,-3.058 2.086,-4.016 7.39,-15.434 0.168,-4.175 1.766,-4.172 8.355,-15.278 2.731,-3.203 0.801,-2.261 -0.157,-8.829 -0.48,-6.433 2.41,-1.77 3.695,1.293 6.106,2.899 4.18,0.476 5.625,-0.812 3.695,-0.477 1.285,-2.086 0.805,-1.609 0.16,-2.902 23.141,-16.071 5.945,-1.117 8.844,-3.375 16.871,-5.148 3.215,-1.766 0.32,-2.09 1.125,-0.316 1.773,0.316 6.739,-2.898 3.695,-2.403 13.184,-1.609 4.98,-0.637 5.941,4.012 8.036,1.77 13.179,6.914 4.668,0.957 4.016,-3.203 9.16,-4.989 6.43,-2.246 4.172,4.813 4.179,8.679 3.699,2.582 5.297,0.637 7.082,1.449 6.258,1.93 5.145,-1.117 7.55,-6.117 36.641,-7.071 8.203,0.157 14.617,-4.649 9.965,-8.363 18.957,-5.942 7.887,-0.972 3.691,4.824 12.047,-0.813 3.375,11.583 4.184,1.117 4.012,-1.93 1.929,-4.012 4.977,-7.55 6.437,-14.465 -0.644,-3.7 2.562,-2.402 0.813,-6.101 -1.617,-3.7 -4.653,-2.422 6.102,-0.949 1.777,-1.289 0.153,-3.219 -1.93,-3.543 -1.113,-5.937 -3.379,-2.902 -0.637,-1.118 2.07,-6.589 -0.468,-2.571 -1.45,-1.922 -1.281,-2.25 0.156,-1.129 -1.925,-3.378 -2.086,-2.743 -1.293,-1.609 -2.403,-1.109 -4.351,-1.61 -3.36,-1.121 0.153,-1.601 -0.153,-5.149 -0.511,-4.16 -2.231,-4.68 -0.484,-4.488 0.328,-1.934 0.094,-4.648 -0.899,-3.871 -0.965,-3.059 1.114,-2.09 2.582,-4.808 1.289,-0.973 4.812,-0.64 6.11,-1.75 3.05,-1.629 2.891,-2.239 1.938,-1.769 2.722,-0.961 5.789,-0.652 5.305,1.132 h 2.098 l 7.39,1.118 c 0,0 7.391,-0.637 7.867,-0.797 0.481,-0.16 5.625,-1.293 5.625,-1.293 l 4.981,0.812 5.629,-0.32 3.219,-1.922 3.203,-2.418 c 0,0 8.679,-4.66 9.316,-4.66 0.652,0 13.191,-2.102 13.191,-2.102 l 4.172,-0.64 8.032,3.062 h 5.621 l 4.828,-2.082 6.586,-3.379 3.379,0.16 2.093,3.372 3.696,4.019 2.246,1.449 2.566,1.289 7.567,1.93 4.484,2.723 5.305,1.129 4.179,0.8 2.254,-0.48 2.895,-2.41 3.367,-3.531 1.281,-0.649 h 2.266 l 3.375,2.578 1.754,0.633 2.261,-0.16 1.61,-0.16 2.246,-0.16 4.977,-1.442 3.378,-2.57 2.414,-1.61 2.086,0.321 2.407,1.609 2.414,2.25 1.926,2.078 2.414,1.934 3.535,0.488 3.211,2.891 1.773,2.418 2.406,1.769 3.692,0.461 h 1.773 l 4.66,2.582 2.414,1.77 3.528,1.75 3.695,2.09 2.254,0.168 3.217,0.32 2.73,2.723 2.72,1.769 3.23,2.09 2.89,1.289 2.24,0.16 3.22,1.129 2.41,2.41 2.58,2.082 2.4,0.34 4.18,0.789 4.66,2.578 5.15,5.453 2.4,3.059 5.63,6.602 6.74,10.269 3.06,2.738 0.81,1.121 0.48,4.5 -2.58,13.02 0.49,3.379 0.8,2.082 2.58,2.07 3.37,0.66 4.34,-0.32 1.61,-0.48 h 1.6 l 4.66,1.609 3.21,3.199 0.81,7.235 -0.49,4.347 0.49,4.653 3.53,5.785 5.79,5.465 4.5,4.507 -0.16,10.766 3.69,7.551 2.25,4.812 7.89,12.696 8.5,3.695 5.78,4.352 2.74,5.781 2.73,1.289 5.62,2.09 4.03,1.429 4.34,2.743 2.89,17.203 -1.29,3.523 -4.01,7.391 -4.19,10.785 1.45,4.156 5.95,3.871 2.89,2.727 3.54,6.594 4.98,5.128 3.7,5.305 13.01,8.203 9.64,3.219 0.33,1.93 -2.89,3.695 -1.29,8.52 4.65,6.105 -2.08,13.648 1.93,7.075 6.26,7.711 3.7,4.984 1.93,6.914 -1.13,2.086 -2.89,2.09 -5.31,1.289 -3.21,-0.477 -4.82,0.953 -5.13,1.293 -3.06,4.012 -2.1,3.059 -0.63,6.261 2.25,13.016 -0.16,5.797 -2.26,5.129 -1.61,10.609 1.29,3.539 4.99,5.305 4.5,1.609 3.05,1.114 0.96,9.32 -2.73,3.375 -3.7,4.031 0.16,3.203 -0.48,1.77 -6.26,4.012 -3.53,5.464 -0.34,8.84 0.97,2.246 0.48,1.77 -0.48,1.449 -2.58,1.449 -3.21,0.321 -2.09,-0.481 -3.2,0.641 -2.74,0.812 -4.18,1.289 -5.14,2.563 -3.38,2.25 -3.04,3.535 -5.47,7.391 -4.98,4.492 -5.15,3.219 -4.17,0.476 -2.09,-0.797 h -1.93 l -2.26,0.16 -1.75,0.973 -3.06,3.52 -5.79,4.828 -4.01,6.261 -1.29,10.129 1.45,6.578 3.68,4.829 2.74,8.207 v 5.457 3.695 l 2.58,4.988 5.13,6.11 4.34,1.597 0.33,1.61 -2.74,3.855 -2.72,10.125 -3.38,13.5 -2.41,13.82 -2.58,4.977 -1.44,1.293 -1.6,2.254 -3.7,16.871 -3.21,4.332 -0.66,7.883 -1.28,7.226 0.17,5.621 1.6,5.633 3.53,0.637 1.14,3.695 -0.33,4.016 0.16,4.18 0.8,2.734 0.81,3.051 0.64,2.729 -1.93,3.86 -6.26,8.84 -7.07,7.55 -4.51,2.09 -12.05,3.06 -7.07,-4.83 -2.89,-0.96 -2.57,0.8 -3.37,6.11 -1.45,2.73 -2.42,0.32 -1.76,-2.25 -2.25,-3.05 h -2.09 l -2.4,0.49 -1.61,1.11 -2.41,3.22 -1.29,5.62 -0.97,2.26 -2.89,-0.65 -2.57,-1.45 -1.93,0.81 -2.56,1.12 -6.11,3.71 h -3.55 l -3.85,0.15 -4.017,2.58 -3.699,2.56 -9.476,0.32 -6.27,1.78 -9.152,0.47 -4.348,-0.8 -0.973,-1.61 -2.562,-2.72 -3.379,-3.38 -3.375,-0.81 -2.246,-1.12 h -3.379 l -3.527,0.16 -0.805,1.93 -0.477,3.38 -2.734,3.69 -2.094,3.54 1.129,4.65 0.641,2.57 -5.309,10.61 -0.804,3.87 -0.149,4.33 -2.898,3.69 -7.227,1.61 -6.117,-0.47 -7.867,2.72 h -10.285 l -6.11,-1.45 -1.601,-1.43 -4.024,-0.66 -4.656,0.32 -8.031,1.62 -2.899,0.15 -2.722,-0.8 -3.227,0.8 -3.051,1.61 -5.465,0.32 -3.855,0.97 -3.855,4.66 -6.594,3.21 -7.551,6.28 -4.34,2.88 -11.097,5.78 -3.528,3.22 -13.015,4.35 -7.391,4.17 -8.832,-0.48 -3.219,-2.9 -2.254,-0.97 -3.847,-0.8 -1.946,0.64 -8.664,3.06 -6.269,0.89 -7.399,2.49 -4.976,-1.93 -3.532,-0.32 -3.863,2.41 -5.137,-0.81 -6.109,-1.6 -9.805,1.28 -8.031,1.29 -6.273,1.92 -6.907,1.93 -5.136,1.77 -3.864,1.13 -3.378,-1.13 -2.731,-2.56 -3.855,-2.26 -2.407,-1.77 -2.246,-1.6 -2.582,-1.61 -2.57,-1.61 -6.109,-1.45 -8.188,-1.44 -9.16,-2.09 -10.133,-2.41 -4.969,-3.85 -1.609,-1.93 -3.059,-4.67 -2.566,-0.96 -2.418,-2.58 -2.09,-3.05 -1.758,-1.92 -0.488,-2.42 -0.477,-2.72 v -3.06 l -0.812,-2.24 -1.434,-1.77 -1.457,-1.77 -2.238,-1.93 -2.582,-2.08 -2.086,-1.3 -2.09,-1.92 -2.242,-2.09 -2.266,-2.09 -2.246,-3.37 -2.562,-1.77 -2.414,-2.09 -2.414,-1.61 -3.856,-2.25 -2.094,-0.97 -1.441,-1.6 -0.476,-1.29 -0.813,-2.08 -0.797,-2.42 -0.488,-2.89 -0.149,-3.05 -0.496,-3.38 -0.476,-3.21 -0.16,-4.34 -0.485,-2.74 v -2.56 l -0.328,-2.58 -1.754,-1.12 -3.781,-0.97 -3.129,-1.28 -2.582,-1.6 -2.723,-2.58 -1.609,-2.41 -1.281,-2.57 v -1.28 -1.13 l 0.953,-1.28 0.805,-1.13 0.804,-0.96 0.965,-0.97 1.465,-1.61 1.434,-1.448 2.085,-2.246 1.125,-2.563 0.165,-1.609 -0.325,-1.77 -1.125,-2.254 -3.058,-3.535 -1.926,-4.015 0.476,-0.168 0.329,-1.114 1.121,-1.769 1.133,-1.449 1.117,-1.45 -0.16,-1.449 -0.797,-4.015 -1.93,-3.051 -1.129,-2.731 -0.965,-2.726 -0.804,-1.934 -0.321,-1.125 -0.801,-2.414 -0.804,-2.73 -0.16,-1.926 -0.321,-3.219 -1.765,-6.101 -3.219,-5.145 -0.477,-3.211 0.157,-5.949 1.449,-5.625 -0.969,-2.899 -0.957,-4.015 0.16,-3.695 -0.644,-1.766 -1.125,-2.09 -2.739,-1.449 -3.043,-1.113 -2.421,-1.938 -2.407,-1.441 -2.414,-1.926 -2.57,-1.93 -2.887,-2.414 -3.058,-0.644 -3.536,-0.805 h -4.015 l -4.02,-1.281 -4.168,-0.477 -2.898,0.317 -7.391,0.32 h -4.82 l -6.434,-1.61 -7.23,-1.769 -9.16,-1.449 -10.446,-3.696 -7.226,-2.722 -5.629,-3.219 -5.945,-1.289 -7.555,-1.609 -4.824,-1.922 -10.442,-3.051 -2.25,3.371 -3.218,5.789 -6.743,1.602 -3.539,3.379 -4.824,3.863 -2.41,4.172 -4.172,2.086 -7.238,4.183 -3.852,2.414 -3.375,-0.32 -3.379,1.922 -4.332,1.605 -5.629,2.254 -8.035,3.211 -5.465,2.891 -3.691,2.09 -2.09,1.289 -4.824,0.476 -2.566,1.449 -3.059,1.125 -3.215,2.247 -4.016,2.093 -3.855,1.602 -3.699,2.73 -5.781,5.633 -5.465,2.574 -4.336,2.246 -6.27,3.696 -4.824,3.375 -4.336,3.855 -3.219,3.219 -3.695,4.492 -2.563,0.973 -3.058,-0.813 -2.731,0.813 -3.863,1.601 -3.695,3.536 -4.02,5.464 -3.851,5.789 -2.571,3.532 h -1.445 l -0.965,-0.965 -0.804,-0.645 -0.969,-0.965 -1.285,-0.636 h -2.086 l -2.735,-0.16 -1.601,0.32 -1.61,3.535 -0.64,3.211 1.125,2.57 0.801,0.489 -1.125,2.078 0.48,2.254 1.285,1.289 1.606,0.488 0.168,1.434 -2.25,2.578 -2.739,2.566 -2.246,2.57 -1.285,3.054 v 4.02 l 0.641,7.39 z"
         style="fill:none;stroke:#000000;stroke-width:2.711;stroke-linecap:round;stroke-linejoin:round;stroke-miterlimit:4;stroke-dasharray:none;stroke-opacity:1"
         id="path128" />
    </g>
  </g>
</svg>
