<?xml version="1.0" encoding="UTF-8" standalone="no"?>
<svg
   version="1.2"
   viewBox="-100 0 557.5 305.76221"
   id="svg392"
   sodipodi:docname="Presage_Logo_noTXT.svg"
   inkscape:version="1.2.2 (b0a8486541, 2022-12-01)"
   xmlns:inkscape="http://www.inkscape.org/namespaces/inkscape"
   xmlns:sodipodi="http://sodipodi.sourceforge.net/DTD/sodipodi-0.dtd"
   xmlns="http://www.w3.org/2000/svg"
   xmlns:svg="http://www.w3.org/2000/svg">
  <defs
     id="defs396" />
  <sodipodi:namedview
     id="namedview394"
     pagecolor="#ffffff"
     bordercolor="#000000"
     borderopacity="0.25"
     inkscape:showpageshadow="2"
     inkscape:pageopacity="0.0"
     inkscape:pagecheckerboard="0"
     inkscape:deskcolor="#d1d1d1"
     showgrid="false"
     inkscape:zoom="0.83905229"
     inkscape:cx="219.89094"
     inkscape:cy="169.23856"
     inkscape:window-width="3440"
     inkscape:window-height="1368"
     inkscape:window-x="0"
     inkscape:window-y="35"
     inkscape:window-maximized="1"
     inkscape:current-layer="svg392" />
  <title
     id="title2">Presage_Logo_noTXT</title>
  <style
     id="style4">
		.s0 { fill: #ffffff }
		.s1 { fill: #0072bb }
		.s2 { fill: #008fd3 }
		.s3 { fill: #0c8a5a }
		.s4 { fill: #1266b1 }
		.s5 { fill: #1366af }
		.s6 { fill: #00abc4 }
		.s7 { fill: #0a729b }
		.s8 { fill: #1b90af }
		.s9 { fill: #1a8fad }
		.s10 { fill: #176593 }
		.s11 { fill: #00a99d }
		.s12 { fill: #08727e }
		.s13 { fill: #168f8d }
		.s14 { fill: #16a989 }
		.s15 { fill: #16a889 }
		.s16 { fill: #178d7e }
		.s17 { fill: #0e636a }
		.s18 { fill: #00a675 }
		.s19 { fill: #017061 }
		.s20 { fill: #0f8b6c }
		.s21 { fill: #118b6b }
		.s22 { fill: #18a76c }
		.s23 { fill: #18a662 }
		.s24 { fill: #19a763 }
		.s25 { fill: #0a8a57 }
		.s26 { fill: #0c6143 }
		.s27 { fill: #00a550 }
		.s28 { fill: #086f45 }
		.s29 { fill: #19a653 }
		.s30 { fill: #19a654 }
		.s31 { fill: #19a652 }
		.s32 { fill: #34b449 }
		.s33 { fill: #0a8a4d }
		.s34 { fill: #8dc63f }
		.s35 { fill: #1bac50 }
		.s36 { fill: #d5de21 }
		.s37 { fill: #096d43 }
		.s38 { fill: #26b14e }
		.s39 { fill: #74be49 }
		.s40 { fill: #1aac50 }
		.s41 { fill: #0a8b4d }
	</style>
  <g
     id="Layer 1"
     transform="translate(-573.8,-443.63779)">
    <g
       id="&lt;Group&gt;">
      <path
         id="&lt;Compound Path&gt;"
         fill-rule="evenodd"
         class="s0"
         d="m 573.8,679.2 h 11.7 v 6.7 c 3.3,-4 8.6,-7.6 16.1,-7.6 11.5,0 20,8.6 20,26.1 0,17.6 -8.7,26.1 -21.6,26.1 -5.5,0 -10.8,-2.2 -14.5,-6.3 v 24.6 h -11.7 z m 36.1,25.3 c 0,-10.6 -4.6,-16.2 -12.1,-16.2 -4.9,0 -9.5,3 -12.3,6.3 v 20.3 c 3.1,4.1 7.7,6.3 11.9,6.3 8.8,0 12.5,-5.4 12.5,-16.7 z" />
      <path
         id="path7"
         class="s0"
         d="m 627.8,679.2 h 11.7 v 8.3 h 0.2 c 3.1,-5.1 8.5,-9.2 18.2,-9.2 h 0.7 l -0.4,10.7 c -0.5,-0.1 -2.4,-0.2 -3.1,-0.2 -7.5,0 -12.3,3.6 -15.6,9 v 32 h -11.7 z" />
      <path
         id="path9"
         fill-rule="evenodd"
         class="s0"
         d="m 659.7,704.5 c 0,-19.2 13.6,-26.2 24.1,-26.2 11.3,0 22.2,6.7 22.2,27.3 v 2.7 h -34.6 c 0.5,9.2 6.1,13.2 13.6,13.2 6.5,0 10.3,-2.2 14.1,-5.9 l 6.2,6.1 c -5.2,5.8 -12.2,9.1 -21.2,9.1 -12.7,0 -24.4,-7.7 -24.4,-26.3 z m 35.5,-4.9 c -0.6,-7.7 -4.4,-11.8 -11.5,-11.8 -5.7,0 -10.9,3.2 -12.1,11.8 z" />
      <path
         id="path11"
         class="s0"
         d="m 709.2,722.8 6.4,-7.1 c 3.8,3.2 9.4,6 15.9,6 6.3,0 10.1,-1.6 10.1,-5.8 0,-4.1 -5.1,-5.4 -11.2,-6.8 -8.7,-2 -19.1,-4.3 -19.1,-16 0,-8.8 7.6,-14.8 18.8,-14.8 9.6,0 15.5,2.7 20.7,7.1 l -5.6,7.6 c -3.7,-3 -9.7,-5.5 -14.3,-5.5 -6.4,0 -8.5,2.3 -8.5,5.1 0,4.1 5,5.4 11,6.7 8.7,1.9 19.2,4.1 19.2,15.9 0,10.7 -9.6,15.6 -21.1,15.6 -9.3,0 -17.7,-3.3 -22.3,-8 z" />
      <path
         id="path13"
         fill-rule="evenodd"
         class="s0"
         d="m 756.4,717.6 c 0,-11 9.4,-18.3 33,-21 v -1.5 c 0,-5 -2.7,-7.2 -8.3,-7.2 -7.1,0 -12.8,3.4 -17.1,6.8 l -5.7,-7.3 c 5.5,-5 13.9,-9.1 24.4,-9.1 13.5,0 18.2,6.4 18.2,18.2 v 20.9 c 0,6.1 0.4,9.8 1.4,12.4 h -11.8 c -0.6,-2.1 -1.1,-3.6 -1.1,-6.5 -5.2,5.2 -11.2,7.2 -18.7,7.2 -8.2,0 -14.3,-4.5 -14.3,-12.9 z m 33,-1.9 v -11.2 c -14,1.9 -21.4,5.4 -21.4,10.9 0,4 2.7,6.1 7,6.1 6,0 10.7,-2.3 14.4,-5.8 z" />
      <path
         id="path15"
         fill-rule="evenodd"
         class="s0"
         d="m 804.5,737 c 0,-5 3.2,-8.7 8.3,-10.7 -2.6,-1.3 -3.9,-3.4 -3.9,-6.1 0,-3.9 3.1,-7 6.9,-9.3 -5.2,-3.2 -8,-8.4 -8,-14.5 0,-10.4 8,-18.1 21.2,-18.1 6.9,0 12.1,2.2 15.5,5.3 3.3,-2.6 8.4,-4.6 12.6,-5 v 9.6 c -2.3,0 -5.5,0.2 -8.9,1.3 1.2,1.8 1.8,4.2 1.8,6.9 0,10.5 -7.9,17.9 -21,17.9 -2.9,0 -4.6,-0.3 -7.1,-1 -1.5,0.9 -2.5,1.9 -2.5,3.2 0,2 1.3,2.7 5.8,3.1 l 8.9,0.6 c 15,0.9 20.9,4.9 20.9,13.8 0,10.3 -10.5,15.4 -26.1,15.4 -17.4,0 -24.4,-5.1 -24.4,-12.4 z m 40.1,-2 c 0,-3.6 -2.6,-4.9 -12.8,-5.6 l -8.8,-0.6 c -1.1,0 -2,-0.1 -3.1,-0.3 -3.3,1.6 -4.6,3.9 -4.6,6.5 0,4.5 5.1,5.9 15.4,5.9 8.6,0 13.9,-2.3 13.9,-5.9 z m -5.2,-38.3 c 0,-6.3 -3.6,-9.7 -10.3,-9.7 -6.5,0 -10.3,3.5 -10.3,9.7 0,6.2 3.9,9.6 10.4,9.6 6.4,0 10.2,-3.4 10.2,-9.6 z" />
      <path
         id="path17"
         fill-rule="evenodd"
         class="s0"
         d="m 857.7,704.5 c 0,-19.2 13.6,-26.2 24.1,-26.2 11.3,0 22.2,6.7 22.2,27.3 v 2.7 h -34.6 c 0.5,9.2 6.1,13.2 13.5,13.2 6.6,0 10.4,-2.2 14.2,-5.9 l 6.2,6.1 c -5.2,5.8 -12.2,9.1 -21.2,9.1 -12.7,0 -24.4,-7.7 -24.4,-26.3 z m 35.5,-4.9 c -0.6,-7.7 -4.5,-11.8 -11.5,-11.8 -5.7,0 -10.9,3.2 -12.1,11.8 z" />
    </g>
    <g
       id="g389">
      <path
         id="&lt;Path&gt;"
         class="s1"
         d="m 828.3,551.7 v -1.2 q 0,-0.2 0,-0.3 H 824 q -1.8,0 -3.5,0.1 -0.5,0.8 -0.9,1.7 2.1,-0.3 4.4,-0.3 z" />
      <path
         id="path21"
         class="s1"
         d="m 859.7,551.7 h 12.6 q 1.1,-0.7 2.1,-1.5 h -13.6 q -0.6,0.7 -1.1,1.5 z" />
      <path
         id="path23"
         class="s1"
         d="m 823.4,634.9 -16.7,-61.8 c -1.9,-6.9 -1.4,-12.2 1.3,-15.7 q 3,-4 9.8,-5.2 0.3,-0.8 0.8,-1.7 c -5.5,0.8 -9.4,2.7 -11.9,5.9 -3,4 -3.5,9.7 -1.5,17.1 l 23,85.1 z" />
      <path
         id="path25"
         class="s1"
         d="m 926.9,524.2 c 2.8,-5.9 4.4,-12.5 4.4,-19.5 0,-19.8 -5.8,-35.2 -17.2,-45.7 -18.5,-17.2 -45.8,-15.3 -46,-15.3 h -48 v 1.6 h 48.1 c 0.2,-0.1 26.9,-1.9 44.9,14.8 11,10.2 16.6,25.2 16.6,44.6 0,5.6 -1,10.8 -2.8,15.7 q 0.1,1.9 0,3.8 z" />
      <path
         id="path27"
         class="s1"
         d="m 912.6,539.5 q -1,1.8 -2,3.4 c 6,-4 10.9,-9.1 14.4,-15.1 q 0.3,-2 0.4,-4 c -3,6.2 -7.4,11.5 -12.8,15.7 z" />
      <path
         id="path29"
         class="s1"
         d="m 876.8,550.2 q -0.9,0.8 -1.8,1.5 h 4.7 c 10.2,0 19.5,-2.4 27.3,-6.6 q 1.2,-1.6 2.4,-3.3 c -8.2,5.3 -18.4,8.4 -29.7,8.4 z" />
      <path
         id="path31"
         class="s1"
         d="m 858.8,550.2 h -5.5 q -0.4,0.7 -0.8,1.5 h 5.4 q 0.4,-0.8 0.9,-1.5 z" />
      <path
         id="path33"
         class="s1"
         d="m 851.6,550.2 h -7.2 l -0.2,1.5 h 6.6 q 0.4,-0.8 0.8,-1.5 z" />
      <path
         id="path35"
         class="s1"
         d="m 829.8,551.7 h 12.8 l 0.2,-1.5 h -13 q 0,0.1 0,0.3 z" />
      <path
         id="path37"
         class="s2"
         d="m 850.8,556.4 q -0.3,0.8 -0.5,1.6 h 5 q 0.3,-0.8 0.5,-1.6 z" />
      <path
         id="path39"
         class="s2"
         d="m 881.9,541.3 q -0.5,0.8 -1,1.5 h 1.9 q 0.6,-0.9 1.1,-1.9 -1,0.2 -2,0.4 z" />
      <path
         id="path41"
         class="s2"
         d="m 857.5,556.4 q -0.3,0.8 -0.5,1.6 c 6.9,-0.2 12.9,-2.3 18,-6.3 h -2.7 q -6.4,4.4 -14.8,4.7 z" />
      <path
         id="path43"
         class="s2"
         d="m 877.5,547.3 q -1.5,1.6 -3.1,2.9 h 2.4 q 0.9,-0.9 1.8,-1.9 1.7,-1.8 3.2,-3.9 h -1.9 q -1.2,1.5 -2.4,2.9 z" />
      <path
         id="path45"
         class="s2"
         d="m 825.1,635.5 -10.6,-52.2 c -1.6,-7.5 -1.1,-13.3 1.3,-17.5 q -0.1,-1.4 -0.1,-2.6 c -3.7,4.6 -4.6,11.5 -2.7,20.4 l 10.4,51.3 3.2,12 z" />
      <path
         id="path47"
         class="s2"
         d="m 841.8,558 0.2,-1.6 h -8.1 q -2.1,0 -4.1,0.2 v 1.6 q 2,-0.2 4.1,-0.2 z" />
      <path
         id="path49"
         class="s2"
         d="m 884.8,539.1 q 1.1,-2.1 1.9,-4.5 -1,0.7 -2.2,1.3 -0.7,1.9 -1.7,3.7 1,-0.2 2,-0.5 z" />
      <path
         id="path51"
         class="s2"
         d="m 887.7,525.3 q 0.8,0 1.6,-0.1 c 1.2,-6.2 1.5,-12.9 1,-19.8 -0.7,-7.9 -3.4,-13.1 -6.8,-16.6 h -0.4 q 0.3,1.2 0.5,2.5 c 2.6,3.2 4.6,7.8 5.1,14.2 0.6,6.9 0.2,13.7 -1,19.8 z" />
      <path
         id="path53"
         class="s2"
         d="m 843.5,556.4 -0.2,1.6 h 5.4 q 0.2,-0.8 0.4,-1.6 z" />
      <path
         id="path55"
         class="s2"
         d="m 889,526.8 q -0.8,0.1 -1.6,0.1 -0.8,3.5 -1.9,6.7 1.1,-0.7 2.1,-1.6 0.8,-2.5 1.4,-5.2 z" />
      <path
         id="path57"
         class="s3"
         d="m 881.3,488.8 q 0.1,0.1 0.2,0.2 0,-0.1 -0.1,-0.2 z" />
      <path
         id="path59"
         class="s2"
         d="m 817.3,563.7 q 3.7,-4.2 11,-5.3 v -1.6 q -6.9,1 -11,4.7 0,1.1 0,2.2 z" />
      <path
         id="path61"
         class="s2"
         d="m 880.8,486.5 c -7.2,-5.2 -15.7,-4.7 -15.8,-4.7 h -62.4 v 1.6 h 62.5 c 0.5,-0.1 7.8,-0.5 14.2,3.9 h 1.7 q -0.1,-0.4 -0.2,-0.8 z" />
      <path
         id="path63"
         class="s4"
         d="m 872.3,551.7 h 2.7 q 0.9,-0.7 1.8,-1.5 h -2.4 q -1,0.8 -2.1,1.5 z" />
      <path
         id="path65"
         class="s5"
         d="m 826.6,646.9 -3.2,-12 4.8,23.7 z" />
      <path
         id="path67"
         class="s6"
         d="m 822.6,547.4 q 2.7,-3.1 6.6,-5.1 0.3,-1 0.6,-2 c -3.3,1.5 -6.1,3.5 -8.4,6 q -1.6,2 -2.8,4.2 0.9,-0.1 1.9,-0.2 0.9,-1.5 2.1,-2.9 z" />
      <path
         id="path69"
         class="s6"
         d="m 891.2,487.3 c 0.1,0 0.5,-0.1 1.1,-0.1 -3.7,-3.7 -8.2,-6.1 -12.6,-7.7 q 0.4,0.9 0.9,2 c 3.3,1.3 6.6,3.2 9.5,5.8 z" />
      <path
         id="path71"
         class="s6"
         d="m 871.9,539 c 4.5,0 8.8,-1 12.6,-3.1 q 0.5,-1.1 1,-2.3 c -4.1,2.5 -8.7,3.9 -13.6,3.9 h -25.7 q -0.2,0.7 -0.3,1.5 z" />
      <path
         id="path73"
         class="s6"
         d="m 815.7,563.2 q 0.8,-0.9 1.6,-1.7 c 0.2,-3.5 1,-6.7 2.3,-9.5 q -0.9,0.1 -1.8,0.2 c -1.4,3.3 -2.1,7 -2.1,11 z" />
      <path
         id="path75"
         class="s6"
         d="m 894.4,524.3 q 1.2,-0.4 2.3,-0.8 c 3.5,-6.7 4.6,-14.6 3,-22.5 -1,-5.1 -3.2,-9.1 -5.9,-12.3 -1,0 -1.7,0 -2.1,0.1 3,3.1 5.4,7.2 6.5,12.5 1.6,8 0.2,16.3 -3.8,23 z" />
      <path
         id="path77"
         class="s6"
         d="m 844.6,537.5 c -4.8,0 -9.1,0.7 -12.8,2 q -0.4,0.9 -0.8,2 c 3.8,-1.5 8.3,-2.4 13.3,-2.4 q 0.1,-0.9 0.3,-1.6 z" />
      <path
         id="path79"
         class="s6"
         d="m 826.7,635.4 -9,-67.3 q -0.4,-2.2 -0.4,-4.4 -0.2,0.2 -0.4,0.5 -0.6,0.7 -1.1,1.6 0.1,1.2 0.3,2.5 l 9,67.2 2.3,11.5 z" />
      <path
         id="path81"
         class="s6"
         d="m 893.2,528.7 q 1.2,-1.5 2.3,-3.1 -1.2,0.3 -2.3,0.6 -0.6,0.8 -1.2,1.6 -2,2.4 -4.4,4.2 -0.4,1.3 -0.9,2.6 c 2.4,-1.6 4.6,-3.5 6.5,-5.9 z" />
      <path
         id="path83"
         class="s6"
         d="m 863.5,476.3 h -31.6 v 1.6 h 31.6 c 0.2,0 7.3,0.1 15,2.8 q -0.5,-1 -1,-2 c -7.4,-2.3 -13.8,-2.4 -14,-2.4 z" />
      <path
         id="path85"
         class="s7"
         d="m 819.6,552 q 0.4,-0.9 0.9,-1.7 -1,0.1 -1.9,0.2 -0.5,0.9 -0.8,1.7 0.9,-0.1 1.8,-0.2 z" />
      <path
         id="path87"
         class="s8"
         d="m 827.4,647 -2.3,-11.5 1.5,11.4 1.1,3.9 z" />
      <path
         id="path89"
         class="s9"
         d="m 817.3,563.7 q 0,-1.1 0,-2.2 -0.8,0.8 -1.6,1.7 0,1.2 0.1,2.6 0.5,-0.9 1.1,-1.6 0.2,-0.3 0.4,-0.5 z" />
      <path
         id="path91"
         class="s9"
         d="m 886.7,534.6 q 0.5,-1.3 0.9,-2.6 -1,0.9 -2.1,1.6 -0.5,1.2 -1,2.3 1.2,-0.6 2.2,-1.3 z" />
      <path
         id="path93"
         class="s10"
         d="m 827.7,650.8 -1.1,-3.9 1.6,11.7 v -0.1 z" />
      <path
         id="path95"
         class="s11"
         d="m 850.3,487.3 v 1.5 h 31 q -0.9,-0.9 -2,-1.5 z" />
      <path
         id="path97"
         class="s11"
         d="m 842.2,566 -0.2,1.6 h 4.5 l 0.3,-1.6 z" />
      <path
         id="path99"
         class="s11"
         d="m 893.8,488.7 c 2,0 5.1,0.3 8.6,1.3 q -0.3,-0.9 -0.6,-1.7 c -4.2,-1.1 -7.8,-1.2 -9.5,-1.1 q 0.8,0.7 1.5,1.5 z" />
      <path
         id="path101"
         class="s11"
         d="m 839.6,567.6 h 0.9 l 0.1,-1.1 q -0.5,0.5 -1,1.1 z" />
      <path
         id="path103"
         class="s11"
         d="m 848.1,567.6 h 4.6 l 0.4,-1.6 h -4.7 z" />
      <path
         id="path105"
         class="s11"
         d="m 925,527.8 c -0.7,5.4 -2.9,10.6 -6.3,15.4 -10.4,14.5 -31.5,22.8 -57.8,22.8 h -6.1 l -0.5,1.6 h 6.6 c 26.8,0 48.3,-8.6 59.1,-23.5 4.3,-6.1 6.7,-12.9 6.9,-19.9 q -0.8,1.9 -1.9,3.6 z" />
      <path
         id="path107"
         class="s11"
         d="m 908.3,492.4 q -0.2,-0.9 -0.4,-1.8 -2.2,-1.1 -4.2,-1.7 0.3,0.8 0.5,1.7 2,0.7 4.1,1.8 z" />
      <path
         id="path109"
         class="s11"
         d="m 912.7,495.3 q -0.5,-1.3 -1.1,-2.6 -1,-0.6 -1.9,-1.2 0.2,1 0.4,2 1.3,0.8 2.6,1.8 z" />
      <path
         id="path111"
         class="s11"
         d="m 832.9,566 c -0.7,0 -1.8,0 -3.1,0.3 v 1.6 c 1.2,-0.3 2.4,-0.3 3.1,-0.3 h 4.7 q 0.6,-0.8 1.3,-1.6 z" />
      <path
         id="path113"
         class="s11"
         d="m 914.1,494.5 q 0.5,1.5 1,3 1.2,1.2 2.4,2.7 -0.1,-1.2 -0.2,-2.5 -1.6,-1.8 -3.2,-3.2 z" />
      <path
         id="path115"
         class="s11"
         d="m 828.2,635.2 -3.7,-56.4 c -0.3,-4.2 0.4,-7.2 2.1,-9.1 q 0.8,-0.8 1.7,-1.2 v -1.7 c -1,0.4 -2,1 -2.8,1.9 -2.1,2.2 -2.9,5.6 -2.6,10.2 l 3.8,56.5 1.5,11.6 z" />
      <path
         id="path117"
         class="s11"
         d="m 923.5,511.7 c 1.4,4 2,8.1 1.9,12.1 q 0.8,-1.7 1.5,-3.4 -0.4,-4.6 -1.9,-9.2 c -1.6,-4.7 -3.6,-8.4 -6,-11.5 q 0.1,1.4 0.1,2.8 c 1.7,2.6 3.2,5.6 4.4,9.2 z" />
      <path
         id="path119"
         class="s11"
         d="m 883.5,488.8 h 7.8 q 0.1,0 0.4,0 -0.8,-0.8 -1.6,-1.5 h -7.5 q 0.2,0.4 0.3,1 0.3,0.2 0.6,0.5 z" />
      <path
         id="path121"
         class="s12"
         d="m 925,527.8 q 1.1,-1.7 1.9,-3.6 0.1,-1.9 0,-3.8 -0.7,1.7 -1.5,3.4 -0.1,2 -0.4,4 z" />
      <path
         id="path123"
         class="s13"
         d="m 881,487.3 h -1.7 q 1.1,0.6 2,1.5 h 0.1 q -0.2,-0.8 -0.4,-1.5 z" />
      <path
         id="path125"
         class="s3"
         d="m 882.9,488.3 q 0.1,0.2 0.2,0.5 h 0.4 q -0.3,-0.3 -0.6,-0.5 z" />
      <path
         id="path127"
         class="s14"
         d="m 893.8,488.7 q -0.7,-0.8 -1.5,-1.5 c -0.6,0 -1,0.1 -1.1,0.1 h -1.1 q 0.8,0.7 1.6,1.5 c 0.4,-0.1 1.1,-0.1 2.1,-0.1 z" />
      <path
         id="path129"
         class="s15"
         d="m 828.2,647 -1.5,-11.6 0.7,11.6 0.8,3.8 z" />
      <path
         id="path131"
         class="s16"
         d="m 827.4,647 0.3,3.8 0.5,1.9 v -1.9 z" />
      <path
         id="path133"
         class="s17"
         d="m 828.2,658.5 v -5.8 l -0.5,-1.9 z" />
      <path
         id="path135"
         class="s18"
         d="m 829.8,566.3 v -8.1 q -0.8,0.1 -1.5,0.2 v 8.4 q 0.8,-0.3 1.5,-0.5 z" />
      <path
         id="path137"
         class="s18"
         d="m 829.8,550.2 q 0.1,-5.1 1.2,-8.7 -0.9,0.4 -1.8,0.8 -0.9,3.5 -0.9,7.9 z" />
      <path
         id="path139"
         class="s18"
         d="m 829.8,551.7 h -1.5 v 5.1 q 0.7,-0.1 1.5,-0.2 z" />
      <path
         id="path141"
         class="s18"
         d="m 880.8,526.9 h -2 q -3.3,3.6 -8.8,3.6 h -20.8 q -0.6,0.7 -1.1,1.6 H 870 q 7,-0.1 10.8,-5.2 z" />
      <path
         id="path143"
         class="s18"
         d="m 845.2,532.1 h 1.2 q 0.4,-0.9 0.9,-1.6 h -2.1 c -7.9,0 -13,3.3 -15.4,9.8 q 1,-0.4 2,-0.8 c 2.4,-5 6.8,-7.4 13.4,-7.4 z" />
      <path
         id="path145"
         class="s18"
         d="m 885.2,507.8 c 0,-6.3 -0.5,-11.8 -1.6,-16.5 q -1,-1.3 -2.1,-2.3 c 1.4,5.2 2.2,11.4 2.2,18.8 0,8 -1.2,13.8 -3.7,17.6 h 1.8 q 3.4,-6.1 3.4,-17.6 z" />
      <path
         id="path147"
         class="s18"
         d="m 852.6,460 h -38.8 v 1.5 h 38.8 c 0.2,0 5.8,0.2 12.3,3.9 h 2.9 c -7.7,-5.2 -15,-5.4 -15.2,-5.4 z" />
      <path
         id="path149"
         class="s18"
         d="m 828.3,568.5 -0.1,66.7 0.8,11.8 0.8,-11.3 v -67.8 q -0.7,0.2 -1.5,0.6 z" />
      <path
         id="path151"
         class="s18"
         d="m 875.3,472.5 h -2 c 1.5,1.7 2.9,3.8 4.2,6.2 q 1.1,0.4 2.2,0.8 c -1.3,-2.7 -2.8,-5 -4.4,-7 z" />
      <path
         id="path153"
         class="s18"
         d="m 869.9,467 h -2.6 c 1.5,1.1 3.1,2.4 4.6,3.9 h 2.1 q -2,-2.2 -4.1,-3.9 z" />
      <path
         id="path155"
         class="s18"
         d="m 882.6,487.3 q -0.9,-3.2 -2,-5.8 -1,-0.4 -2.1,-0.8 1.3,2.6 2.3,5.8 0.5,0.3 1,0.8 z" />
      <path
         id="path157"
         class="s19"
         d="m 829.8,550.5 q 0,-0.2 0,-0.3 h -1.5 q 0,0.1 0,0.3 v 1.2 h 1.5 z" />
      <path
         id="path159"
         class="s3"
         d="m 881.8,487.3 q -0.5,-0.5 -1,-0.8 0.1,0.4 0.2,0.8 z" />
      <path
         id="path161"
         class="s20"
         d="m 883.6,491.3 q -0.2,-1.3 -0.5,-2.5 h -1.7 q 0.1,0.1 0.1,0.2 1.1,1 2.1,2.3 z" />
      <path
         id="path163"
         class="s21"
         d="m 829.8,558.2 v -1.6 q -0.8,0.1 -1.5,0.2 v 1.6 q 0.7,-0.1 1.5,-0.2 z" />
      <path
         id="path165"
         class="s22"
         d="m 879.7,479.5 q -1.1,-0.4 -2.2,-0.8 0.5,1 1,2 1.1,0.4 2.1,0.8 -0.5,-1.1 -0.9,-2 z" />
      <path
         id="path167"
         class="s22"
         d="m 831,541.5 q 0.4,-1.1 0.8,-2 -1,0.4 -2,0.8 -0.3,1 -0.6,2 0.9,-0.4 1.8,-0.8 z" />
      <path
         id="path169"
         class="s23"
         d="m 828.2,647 0.5,3.9 0.3,-3.9 -0.8,-11.8 z" />
      <path
         id="path171"
         class="s23"
         d="m 829.8,566.3 q -0.7,0.2 -1.5,0.5 v 1.7 q 0.8,-0.4 1.5,-0.6 z" />
      <path
         id="path173"
         class="s24"
         d="m 882.6,487.3 h -0.8 q 0.6,0.4 1.1,1 -0.1,-0.6 -0.3,-1 z" />
      <path
         id="path175"
         class="s3"
         d="M 881.8,487.3 H 881 q 0.2,0.7 0.4,1.5 h 1.7 q -0.1,-0.3 -0.2,-0.5 -0.5,-0.6 -1.1,-1 z" />
      <path
         id="path177"
         class="s18"
         d="m 828.2,647 v 3.8 l 0.4,2 0.1,-1.9 z" />
      <path
         id="path179"
         class="s25"
         d="m 828.2,652.7 0.3,1.2 0.1,-1.1 -0.4,-2 z" />
      <path
         id="path181"
         class="s26"
         d="m 828.2,652.7 v 5.8 l 0.3,-4.6 z" />
      <path
         id="path183"
         class="s27"
         d="m 849.5,560.8 q -0.2,0.9 -0.3,1.7 2.3,-0.4 5,-0.5 l 0.4,-1.5 q -2.7,0 -5.1,0.3 z" />
      <path
         id="path185"
         class="s27"
         d="m 912.7,495.3 q 3.4,8.9 3.4,20.8 0,0.9 0,1.8 0.9,-4 1.3,-8.6 -0.6,-6.4 -2.3,-11.8 -1.2,-1.2 -2.4,-2.2 z" />
      <path
         id="path187"
         class="s27"
         d="m 915.5,525.1 c -1.1,6.9 -3.3,12.3 -6.1,16.7 q 1.6,-1.1 3.2,-2.3 c 2.8,-5.5 4.8,-12.5 5,-21.4 q -0.8,3.7 -2.1,7 z" />
      <path
         id="path189"
         class="s27"
         d="m 840.9,564.3 q -1.1,0.8 -2,1.7 h 1.8 z" />
      <path
         id="path191"
         class="s27"
         d="m 881.7,559.1 -0.4,0.1 c -2.6,0.7 -5.7,1 -9.5,1.3 h -15.5 l -0.5,1.5 h 16 c 4,-0.2 7.1,-0.6 9.9,-1.3 l 0.4,-0.1 c 5.9,-1.4 19.9,-4.7 28.5,-17.7 q -1.8,1.1 -3.6,2.2 c -8.3,10 -20.1,12.8 -25.3,14 z" />
      <path
         id="path193"
         class="s27"
         d="m 839.6,567.6 h -2 q -3.4,4.6 -4,12.3 l -3.8,55.8 v 11.2 l 1.6,-12.2 3.8,-54.7 q 0.5,-8 4.4,-12.4 z" />
      <path
         id="path195"
         class="s27"
         d="m 842.4,565.1 q 2.2,-1.4 5.1,-2.2 0.2,-0.9 0.4,-1.7 -2.9,0.7 -5.3,2 z" />
      <path
         id="path197"
         class="s27"
         d="m 896.4,476.7 c 2.8,1.4 5.6,3.4 8.2,6 q 0.7,0.7 1.4,1.4 -0.7,-1.9 -1.5,-3.7 c -3.9,-3.5 -8.2,-5.8 -12,-7.2 q 2,1.5 3.9,3.5 z" />
      <path
         id="path199"
         class="s27"
         d="m 891.9,474.7 q -2.3,-1.7 -4.6,-3 c -3.6,-0.8 -6.2,-0.8 -6.5,-0.8 H 874 q 0.7,0.7 1.3,1.6 h 5.5 c 0.2,0 5,0 11.1,2.2 z" />
      <path
         id="path201"
         class="s27"
         d="m 840.3,470.9 v 1.6 h 33 q -0.7,-0.9 -1.4,-1.6 z" />
      <path
         id="path203"
         class="s27"
         d="m 914.1,494.5 q -2.5,-6.3 -6.7,-11.2 0.7,2.1 1.3,4.4 1.6,2.3 2.9,5 1.2,0.8 2.5,1.8 z" />
      <path
         id="path205"
         class="s28"
         d="m 907,545.1 q 1.8,-1.1 3.6,-2.2 1,-1.6 2,-3.4 -1.6,1.2 -3.2,2.3 -1.2,1.7 -2.4,3.3 z" />
      <path
         id="path207"
         class="s29"
         d="m 838.9,566 q -0.7,0.8 -1.3,1.6 h 2 q 0.5,-0.6 1,-1.1 l 0.1,-0.5 z" />
      <path
         id="path209"
         class="s30"
         d="m 915.1,497.5 q -0.5,-1.5 -1,-3 -1.3,-1 -2.5,-1.8 0.6,1.3 1.1,2.6 1.2,1 2.4,2.2 z" />
      <path
         id="path211"
         class="s29"
         d="m 874,470.9 h -2.1 q 0.7,0.7 1.4,1.6 h 2 q -0.6,-0.9 -1.3,-1.6 z" />
      <path
         id="path213"
         class="s31"
         d="m 829.3,650.8 0.5,-3.9 V 635.7 L 829,647 Z" />
      <path
         id="path215"
         class="s27"
         d="m 829,647 -0.3,3.9 0.3,1.8 0.3,-1.9 z" />
      <path
         id="path217"
         class="s27"
         d="m 828.6,652.8 0.2,1.1 0.2,-1.2 -0.3,-1.8 z" />
      <path
         id="path219"
         class="s25"
         d="m 828.6,652.8 -0.1,1.1 0.2,0.8 0.1,-0.8 z" />
      <path
         id="path221"
         class="s26"
         d="m 828.2,658.5 0.5,-3.8 -0.2,-0.8 z" />
      <path
         id="path223"
         class="s32"
         d="m 857.6,449.3 h -10.8 v 1.6 h 10.9 c 0.2,0 9.7,-0.2 20.5,4.1 1.8,0.3 4,0.7 6.5,1.4 -13.4,-7.4 -26.8,-7.1 -27.1,-7.1 z" />
      <path
         id="path225"
         class="s32"
         d="m 902.2,522 q 0.4,-1.3 0.7,-2.6 -2.7,2.6 -6.2,4.1 -0.6,1 -1.2,2.1 3.8,-1.3 6.7,-3.6 z" />
      <path
         id="path227"
         class="s32"
         d="m 843.5,556.4 0.7,-4.7 h -1.6 l -0.6,4.7 z" />
      <path
         id="path229"
         class="s32"
         d="m 905,516.9 q -0.3,1.6 -0.6,3.1 0.2,-0.2 0.4,-0.4 c 7.4,-8.3 6.1,-20.4 6.1,-20.5 q -0.3,-2.9 -0.8,-5.6 -0.9,-0.6 -1.8,-1.1 0.6,3.3 1.1,6.9 c 0.3,2.9 0,11.2 -4.4,17.6 z" />
      <path
         id="path231"
         class="s32"
         d="m 893.2,526.2 q 0.6,-1 1.2,-1.9 -2.4,0.6 -5.1,0.9 -0.1,0.8 -0.3,1.6 2.2,-0.2 4.2,-0.6 z" />
      <path
         id="path233"
         class="s32"
         d="m 859,526.9 h 19.8 q 0.6,-0.7 1.2,-1.5 h -21 c -4.3,0 -8.8,0.7 -11.7,5.1 h 1.9 c 2.4,-2.8 5.7,-3.6 9.8,-3.6 z" />
      <path
         id="path235"
         class="s32"
         d="m 907.4,483.3 c -4,-11.1 -10.5,-18.6 -17.5,-23.6 -2.1,-0.8 -4,-1.4 -5.8,-1.9 7.7,4.3 15.5,11.3 20.4,22.6 q 0.6,0.6 1.2,1.1 0.9,0.9 1.7,1.8 z" />
      <path
         id="path237"
         class="s32"
         d="m 841.2,566 h 1 l 0.2,-0.9 q -0.7,0.5 -1.2,0.9 z" />
      <path
         id="path239"
         class="s32"
         d="m 845.8,539.6 q 0,-0.3 0.1,-0.6 H 845 q -0.3,0 -0.7,0.1 0,0.1 0,0.3 l -1.5,10.8 h 1.6 z" />
      <path
         id="path241"
         class="s32"
         d="m 840.5,567.6 -9.1,67.1 -0.8,11.9 2.4,-11.9 9,-67.1 z" />
      <path
         id="path243"
         class="s32"
         d="m 840.9,564.3 q 0.8,-0.6 1.7,-1.1 l 0.7,-5.2 h -1.5 z" />
      <path
         id="path245"
         class="s32"
         d="m 845,537.5 h 1.2 c 0.4,-2.3 1.1,-4 1.9,-5.4 h -1.7 c -0.8,1.4 -1.4,3.2 -1.8,5.4 q 0.2,0 0.4,0 z" />
      <path
         id="path247"
         class="s32"
         d="m 909.7,491.5 q -0.4,-1.9 -1,-3.8 -1.2,-1.9 -2.7,-3.6 1,3 1.9,6.5 0.9,0.4 1.8,0.9 z" />
      <path
         id="path249"
         class="s32"
         d="m 887.4,526.9 q 0.2,-0.8 0.3,-1.6 -0.8,0.1 -1.7,0.1 h -4.2 q -0.5,0.8 -1,1.5 h 5.2 q 0.7,0 1.4,0 z" />
      <path
         id="path251"
         class="s28"
         d="m 844.2,551.7 0.2,-1.5 h -1.6 l -0.2,1.5 z" />
      <path
         id="path253"
         class="s33"
         d="m 889.3,525.2 q -0.8,0.1 -1.6,0.1 -0.1,0.8 -0.3,1.6 0.8,0 1.6,-0.1 0.2,-0.8 0.3,-1.6 z" />
      <path
         id="path255"
         class="s33"
         d="m 842,556.4 -0.3,1.6 h 1.6 l 0.2,-1.6 z" />
      <path
         id="path257"
         class="s29"
         d="m 896.7,523.5 q -1.1,0.4 -2.3,0.8 -0.6,0.9 -1.2,1.9 1.1,-0.3 2.3,-0.6 0.6,-1.1 1.2,-2.1 z" />
      <path
         id="path259"
         class="s29"
         d="m 845.9,539 q 0.1,-0.8 0.3,-1.5 H 845 q -0.2,0 -0.4,0 -0.2,0.7 -0.3,1.6 0.4,-0.1 0.7,-0.1 z" />
      <path
         id="path261"
         class="s30"
         d="m 910.1,493.5 q -0.2,-1 -0.4,-2 -0.9,-0.5 -1.8,-0.9 0.2,0.9 0.4,1.8 0.9,0.5 1.8,1.1 z" />
      <path
         id="path263"
         class="s29"
         d="m 840.6,566.5 -0.1,1.1 h 1.5 l 0.2,-1.6 h -1 q -0.3,0.3 -0.6,0.5 z" />
      <path
         id="path265"
         class="s29"
         d="m 848.1,532.1 q 0.5,-0.9 1.1,-1.6 h -1.9 q -0.5,0.7 -0.9,1.6 z" />
      <path
         id="path267"
         class="s29"
         d="m 880.8,526.9 q 0.5,-0.7 1,-1.5 H 880 q -0.6,0.8 -1.2,1.5 z" />
      <path
         id="path269"
         class="s31"
         d="m 829.8,650.7 0.8,-4.1 0.8,-11.9 -1.6,12.2 z" />
      <path
         id="path271"
         class="s29"
         d="m 908.7,487.7 q -0.6,-2.3 -1.3,-4.4 -0.8,-0.9 -1.7,-1.8 -0.6,-0.5 -1.2,-1.1 0.8,1.8 1.5,3.7 1.5,1.7 2.7,3.6 z" />
      <path
         id="path273"
         class="s29"
         d="m 840.7,566 h 0.5 q 0.5,-0.4 1.2,-0.9 l 0.2,-1.9 q -0.9,0.5 -1.7,1.1 z" />
      <path
         id="path275"
         class="s29"
         d="m 840.6,566.5 q 0.3,-0.2 0.6,-0.5 h -0.5 z" />
      <path
         id="path277"
         class="s31"
         d="m 829.4,652.7 0.4,-2 v -3.8 l -0.5,3.9 z" />
      <path
         id="path279"
         class="s31"
         d="m 829.3,650.8 -0.3,1.9 0.2,1.2 0.2,-1.2 z" />
      <path
         id="path281"
         class="s31"
         d="m 829,652.7 -0.2,1.2 0.2,0.8 0.2,-0.8 z" />
      <path
         id="path283"
         class="s25"
         d="m 828.7,654.7 0.2,0.5 0.1,-0.5 -0.2,-0.8 z" />
      <path
         id="path285"
         class="s26"
         d="m 828.7,654.7 -0.5,3.8 v -0.1 l 0.7,-3.2 z" />
      <path
         id="path287"
         class="s34"
         d="m 846.9,565.4 -0.1,0.6 h 1.6 l 0.1,-0.3 q 0.3,-1.7 0.7,-3.2 -0.9,0.2 -1.7,0.4 -0.3,1.2 -0.6,2.5 z" />
      <path
         id="path289"
         class="s34"
         d="m 901.8,488.3 q 1,0.3 1.9,0.6 c -1.7,-5.1 -4.3,-9.1 -7.3,-12.2 q -2.3,-1.2 -4.5,-2 c 4,3.1 7.7,7.5 9.9,13.6 z" />
      <path
         id="path291"
         class="s34"
         d="m 835.5,465.4 v 1.6 h 31.8 q -1.2,-0.9 -2.4,-1.6 z" />
      <path
         id="path293"
         class="s34"
         d="m 872.6,467 c 0.2,0 7.3,0.6 14.7,4.7 1.6,0.3 3.4,0.8 5.2,1.5 -9.1,-6.9 -19.6,-7.7 -19.8,-7.8 h -4.9 q 1.1,0.8 2.1,1.6 z" />
      <path
         id="path295"
         class="s34"
         d="m 848.7,558 q -0.4,1.5 -0.8,3.2 0.8,-0.2 1.6,-0.4 0.4,-1.4 0.8,-2.8 z" />
      <path
         id="path297"
         class="s34"
         d="m 866.8,542 h 5.6 q 5.3,0 9.5,-0.7 0.5,-0.9 0.9,-1.7 -4.5,0.8 -10.4,0.8 h -5.6 c -7.1,0 -11.8,2.8 -15.2,9.8 h 1.7 c 3.1,-5.9 7.3,-8.2 13.5,-8.2 z" />
      <path
         id="path299"
         class="s34"
         d="m 846.5,567.6 -13.5,67.1 -1.6,12.1 3.1,-11.6 13.6,-67.6 z" />
      <path
         id="path301"
         class="s34"
         d="m 904.4,520 q -1,1.1 -2.2,2 c -2.4,8.9 -7.4,14.7 -17.4,17.1 q -0.4,0.9 -0.9,1.8 c 13.1,-2.8 18.4,-10.7 20.5,-20.9 z" />
      <path
         id="path303"
         class="s34"
         d="m 902.9,519.4 q 0.3,-0.4 0.7,-0.8 0.7,-0.8 1.4,-1.7 c 0.6,-4.5 0.8,-9.4 0.8,-14.4 0,-4.5 -0.6,-8.4 -1.6,-11.9 q -0.9,-0.3 -1.8,-0.6 c 1.1,3.6 1.8,7.7 1.8,12.5 0,6.4 -0.4,12 -1.3,16.9 z" />
      <path
         id="path305"
         class="s34"
         d="m 852.5,551.7 h -1.7 q -0.9,2.2 -1.7,4.7 h 1.7 q 0.8,-2.6 1.7,-4.7 z" />
      <path
         id="path307"
         class="s28"
         d="m 853.3,550.2 h -1.7 q -0.4,0.7 -0.8,1.5 h 1.7 q 0.4,-0.8 0.8,-1.5 z" />
      <path
         id="path309"
         class="s33"
         d="m 849.1,556.4 q -0.2,0.8 -0.4,1.6 h 1.6 q 0.2,-0.8 0.5,-1.6 z" />
      <path
         id="path311"
         class="s33"
         d="m 883.9,540.9 q 0.5,-0.9 0.9,-1.8 -1,0.3 -2,0.5 -0.4,0.8 -0.9,1.7 1,-0.2 2,-0.4 z" />
      <path
         id="path313"
         class="s29"
         d="m 846.5,567.6 h 1.6 l 0.3,-1.6 h -1.6 z" />
      <path
         id="path315"
         class="s30"
         d="m 904.2,490.6 q -0.2,-0.9 -0.5,-1.7 -0.9,-0.3 -1.9,-0.6 0.3,0.8 0.6,1.7 0.9,0.3 1.8,0.6 z" />
      <path
         id="path317"
         class="s29"
         d="m 867.8,465.4 h -2.9 q 1.2,0.7 2.4,1.6 h 2.6 q -1,-0.8 -2.1,-1.6 z" />
      <path
         id="path319"
         class="s29"
         d="m 891.9,474.7 q 2.2,0.8 4.5,2 -1.9,-2 -3.9,-3.5 c -1.8,-0.7 -3.6,-1.2 -5.2,-1.5 q 2.3,1.3 4.6,3 z" />
      <path
         id="path321"
         class="s29"
         d="m 847.9,561.2 q -0.2,0.8 -0.4,1.7 0.8,-0.2 1.7,-0.4 0.1,-0.8 0.3,-1.7 -0.8,0.2 -1.6,0.4 z" />
      <path
         id="path323"
         class="s35"
         d="m 904.4,520 q 0.3,-1.5 0.6,-3.1 -0.7,0.9 -1.4,1.7 -0.4,0.4 -0.7,0.8 -0.3,1.3 -0.7,2.6 1.2,-0.9 2.2,-2 z" />
      <path
         id="path325"
         class="s35"
         d="m 830.3,650.7 1.1,-3.9 1.6,-12.1 -2.4,11.9 z" />
      <path
         id="path327"
         class="s31"
         d="m 829.8,652.7 0.5,-2 0.3,-4.1 -0.8,4.1 z" />
      <path
         id="path329"
         class="s31"
         d="m 829.8,650.7 -0.4,2 0.1,1.2 0.3,-1.2 z" />
      <path
         id="path331"
         class="s31"
         d="m 829.2,653.9 0.1,0.8 0.2,-0.8 -0.1,-1.2 z" />
      <path
         id="path333"
         class="s31"
         d="m 829.2,653.9 -0.2,0.8 0.1,0.5 0.2,-0.5 z" />
      <path
         id="path335"
         class="s25"
         d="m 829,654.7 -0.1,0.5 0.1,0.4 0.1,-0.4 z" />
      <path
         id="path337"
         class="s26"
         d="m 828.2,658.4 0.8,-2.8 -0.1,-0.4 z" />
      <path
         id="path339"
         class="s36"
         d="m 834.5,635.2 -4.7,23.4 24.5,-91 h -1.6 z" />
      <path
         id="path341"
         class="s36"
         d="m 916.7,491.9 q 0.4,2.9 0.6,5.8 0.9,0.9 1.7,2 -0.2,-3.9 -0.8,-8.1 c -3.2,-23.4 -21.4,-32 -33.5,-35.2 q 2.6,1.4 5.2,3.3 c 11,4.1 24.1,13 26.8,32.2 z" />
      <path
         id="path343"
         class="s36"
         d="M 873.6,454.5 H 824 v 1.6 h 49.5 c 0.2,0 4.6,0.2 10.6,1.7 q -3,-1.6 -5.9,-2.8 c -2.8,-0.4 -4.5,-0.5 -4.6,-0.5 z" />
      <path
         id="path345"
         class="s36"
         d="m 854.7,562 q -0.2,0 -0.5,0 l -1.1,4 h 1.7 l 1,-4 z" />
      <path
         id="path347"
         class="s36"
         d="m 858.8,550.2 h 2 c 3.8,-4.8 9.3,-5.8 17.6,-5.8 h 1.5 q 0.5,-0.8 1,-1.6 h -2.5 c -9.3,0 -15.4,1.3 -19.6,7.4 z" />
      <path
         id="path349"
         class="s36"
         d="m 857.9,551.7 q -1.1,2.1 -2.1,4.7 h 0.4 q 0.6,0 1.3,0 1,-2.7 2.2,-4.7 z" />
      <path
         id="path351"
         class="s36"
         d="m 857,558 q -0.4,0 -0.8,0 h -0.9 q -0.2,0.7 -0.4,1.5 l -0.3,1 q 0.1,0 0.1,0 h 1.6 l 0.1,-0.6 q 0.3,-1 0.6,-1.9 z" />
      <path
         id="path353"
         class="s36"
         d="m 917.4,509.3 q 0.3,3.3 0.3,6.8 0,1 -0.1,2 c 1.1,-4.7 1.6,-10 1.5,-15.6 q -0.8,-1.2 -1.6,-2.3 0.2,4.8 -0.1,9.1 z" />
      <path
         id="path355"
         class="s36"
         d="m 908.4,533.9 c -5.1,5.8 -11.8,8.9 -19.4,8.9 h -6.2 q -0.5,0.8 -1,1.6 h 7.2 c 8,0 15.3,-3.4 20.5,-9.4 2.5,-2.8 4.4,-6.1 6,-9.9 q 0.5,-3.4 0.6,-7.2 c -1.5,6.4 -4.1,11.9 -7.7,16 z" />
      <path
         id="path357"
         class="s37"
         d="m 859.7,551.7 q 0.5,-0.8 1.1,-1.5 h -2 q -0.5,0.7 -0.9,1.5 z" />
      <path
         id="path359"
         class="s33"
         d="m 856.2,556.4 h -0.4 q -0.2,0.8 -0.5,1.6 h 0.9 q 0.4,0 0.8,0 0.2,-0.8 0.5,-1.6 -0.7,0 -1.3,0 z" />
      <path
         id="path361"
         class="s33"
         d="m 879.9,544.4 h 1.9 q 0.5,-0.8 1,-1.6 h -1.9 q -0.5,0.8 -1,1.6 z" />
      <path
         id="path363"
         class="s29"
         d="m 853.1,566 -0.4,1.6 h 1.6 l 0.5,-1.6 z" />
      <path
         id="path365"
         class="s30"
         d="m 917.5,500.2 q 0.8,1.1 1.6,2.3 0,-1.4 -0.1,-2.8 -0.8,-1.1 -1.7,-2 0.1,1.3 0.2,2.5 z" />
      <path
         id="path367"
         class="s29"
         d="m 854.7,560.5 q 0,0 -0.1,0 l -0.4,1.5 q 0.3,0 0.5,0 h 1.1 l 0.5,-1.5 z" />
      <path
         id="path369"
         class="s29"
         d="m 915.5,525.1 q 1.3,-3.3 2.1,-7 0.1,-1 0.1,-2 0,-3.5 -0.3,-6.8 -0.4,4.6 -1.3,8.6 -0.1,3.8 -0.6,7.2 z" />
      <path
         id="path371"
         class="s38"
         d="m 884.7,456.4 c -2.5,-0.7 -4.7,-1.1 -6.5,-1.4 q 2.9,1.2 5.9,2.8 c 1.8,0.5 3.7,1.1 5.8,1.9 q -2.6,-1.9 -5.2,-3.3 z" />
      <path
         id="path373"
         class="s39"
         d="m 829.8,658.6 4.7,-23.4 -3.1,11.6 z" />
      <path
         id="path375"
         class="s40"
         d="m 829.8,658.5 v 0.1 l 1.6,-11.8 -1.1,3.9 z" />
      <path
         id="path377"
         class="s31"
         d="m 829.8,658.5 0.5,-7.8 -0.5,2 z" />
      <path
         id="path379"
         class="s31"
         d="m 829.5,653.9 0.3,4.6 v -5.8 z" />
      <path
         id="path381"
         class="s31"
         d="m 829.5,653.9 -0.2,0.8 0.5,3.8 z" />
      <path
         id="path383"
         class="s31"
         d="m 829.1,655.2 0.7,3.3 -0.5,-3.8 z" />
      <path
         id="path385"
         class="s41"
         d="m 829.1,655.2 -0.1,0.4 0.8,2.9 z" />
      <path
         id="path387"
         class="s26"
         d="m 829,655.6 -0.8,3 0.8,3 0.8,-3 z" />
    </g>
  </g>
</svg>
